<svg width="35" height="45" viewBox="0 0 35 45" fill="none" xmlns="http://www.w3.org/2000/svg">
  <path d="M28.4276 21.7684L33.7626 15.1838C35.2035 13.3915 33.1395 10.5472 30.9977 11.3654L24.4165 14.0149L23.2483 20.4827L28.4276 21.7684Z" fill="#784EA0"/>
  <path d="M24.4166 14.0148L26.3637 3.26118C26.792 0.884475 24.1829 -0.868835 22.119 0.455888L0 14.833L13.9412 18.2228L24.4166 14.0148Z" fill="#F47F20"/>
  <path d="M23.2483 20.5214L24.4165 14.0146L13.9412 18.2616L23.2483 20.5214Z" fill="#A12222"/>
  <path d="M21.457 30.379L28.4276 21.7683L23.2484 20.5215L21.457 30.379Z" fill="#612D88"/>
  <path d="M15.1873 38.1716L19.0036 44.055L21.4569 30.3792L15.1873 38.1716Z" fill="#E65925"/>
  <path d="M0 14.833L4.63409 22.0021L13.9412 18.2617L0 14.833Z" fill="#E25526"/>
  <path d="M23.2483 20.5215L13.9412 18.2617L4.63403 22.0021L15.1873 38.1715L21.4569 30.379L23.2483 20.5215Z" fill="#9F1E22"/>
</svg>
