<svg width="319" height="247" viewBox="0 0 319 247" fill="none" xmlns="http://www.w3.org/2000/svg">
<g clip-path="url(#clip0_338:648)">
<path d="M169.785 5.13867L80.0015 53.8216C81.536 56.4675 82.5244 59.3947 82.9082 62.4299C83.292 65.4651 83.0633 68.5466 82.2358 71.4918C81.4082 74.4369 79.9987 77.1859 78.0905 79.5757C76.1824 81.9656 73.8146 83.9478 71.1272 85.405C68.4399 86.8621 65.4878 87.7645 62.4457 88.0587C59.4037 88.3529 56.3336 88.0329 53.4173 87.1177C50.501 86.2025 47.7979 84.7107 45.4681 82.7307C43.1382 80.7507 41.229 78.3227 39.8536 75.5906L9.24023 92.1908L88.5392 238.749L249.083 151.697L169.785 5.13867Z" fill="#F2F2F2"/>
<path opacity="0.2" d="M78.6925 133.508L62.2085 129.1L57.8049 145.601L74.2889 150.009L78.6925 133.508Z" fill="#6C63FF"/>
<path d="M101.674 199.912C88.4977 220.137 92.1042 245.868 92.1042 245.868C92.1042 245.868 117.078 238.8 130.255 218.571C143.431 198.343 139.825 172.615 139.825 172.615C139.825 172.615 114.851 179.684 101.674 199.912Z" fill="#3F3D56"/>
<path opacity="0.625" d="M92.0375 245.634C92.0375 245.634 91.7167 245.583 91.1266 245.463C90.656 245.367 90.0074 245.231 89.2152 245.043C82.1379 243.372 63.3213 237.725 51.0238 222.879C35.6268 204.288 36.2754 178.316 36.2754 178.316C36.2754 178.316 59.8185 182.146 75.3307 198.84C76.003 199.557 76.657 200.301 77.2926 201.071C90.6897 217.246 91.9391 239.01 92.0375 244.391C92.0472 245.197 92.0375 245.634 92.0375 245.634Z" fill="#3D138E"/>
<path d="M82.5414 199.912C95.7179 220.137 92.1114 245.868 92.1114 245.868C92.1114 245.868 67.1373 238.8 53.9608 218.571C40.7843 198.343 44.3908 172.615 44.3908 172.615C44.3908 172.615 69.3649 179.684 82.5414 199.912Z" stroke="#3F3D56" stroke-width="2" stroke-miterlimit="10"/>
<path opacity="0.1" d="M92.0343 244.39C91.686 244.81 91.3794 245.169 91.1269 245.462C90.5668 246.101 90.2496 246.438 90.2496 246.438C90.2496 246.438 89.8642 245.953 89.2155 245.045C85.656 240.077 74.2075 222.416 75.0909 202.016C75.1388 200.946 75.2173 199.889 75.3266 198.842C75.9989 199.559 76.6528 200.303 77.2885 201.073C90.6865 217.246 91.935 239.01 92.0343 244.39Z" fill="black"/>
<path opacity="0.625" d="M111.572 203.489C110.531 227.616 92.6393 246.436 92.6393 246.436C92.6393 246.436 76.4368 226.14 77.4789 202.014C78.5209 177.887 96.4115 159.066 96.4115 159.066C96.4115 159.066 112.614 179.363 111.572 203.489Z" fill="#3D138E"/>
<path d="M11.4174 211.383C12.6491 211.383 13.6477 210.384 13.6477 209.151C13.6477 207.918 12.6491 206.918 11.4174 206.918C10.1856 206.918 9.18701 207.918 9.18701 209.151C9.18701 210.384 10.1856 211.383 11.4174 211.383Z" fill="#FF6584"/>
<path d="M55.623 245.795H148.783" stroke="#3F3D56" stroke-width="2" stroke-miterlimit="10"/>
<path d="M0 245.795H44.0211" stroke="#3F3D56" stroke-width="2" stroke-miterlimit="10"/>
<path d="M22.3442 246.204V220.785" stroke="#3F3D56" stroke-width="2" stroke-miterlimit="10"/>
<path d="M22.3435 224.378C24.3264 224.378 25.934 222.769 25.934 220.784C25.934 218.799 24.3264 217.189 22.3435 217.189C20.3605 217.189 18.7529 218.799 18.7529 220.784C18.7529 222.769 20.3605 224.378 22.3435 224.378Z" fill="#3F3D56"/>
<path d="M22.3434 236.452C22.3434 236.452 21.8303 225.407 11.314 226.694L22.3434 236.452Z" fill="#3F3D56"/>
<path d="M94.4398 153.449C98.2634 153.449 101.363 150.346 101.363 146.518C101.363 142.691 98.2634 139.588 94.4398 139.588C90.6162 139.588 87.5166 142.691 87.5166 146.518C87.5166 150.346 90.6162 153.449 94.4398 153.449Z" fill="#3F3D56"/>
<path d="M72.7248 151.559C75.5055 151.559 77.7597 149.302 77.7597 146.519C77.7597 143.735 75.5055 141.479 72.7248 141.479C69.9441 141.479 67.6899 143.735 67.6899 146.519C67.6899 149.302 69.9441 151.559 72.7248 151.559Z" stroke="#3F3D56" stroke-width="2" stroke-miterlimit="10"/>
<path d="M116.154 151.559C118.935 151.559 121.189 149.302 121.189 146.519C121.189 143.735 118.935 141.479 116.154 141.479C113.373 141.479 111.119 143.735 111.119 146.519C111.119 149.302 113.373 151.559 116.154 151.559Z" stroke="#3F3D56" stroke-width="2" stroke-miterlimit="10"/>
<path d="M92.6392 245.754L96.5726 160.051" stroke="#3F3D56" stroke-width="2" stroke-miterlimit="10"/>
<path d="M311.985 100.308C315.808 100.308 318.908 97.2054 318.908 93.3778C318.908 89.5502 315.808 86.4473 311.985 86.4473C308.161 86.4473 305.062 89.5502 305.062 93.3778C305.062 97.2054 308.161 100.308 311.985 100.308Z" fill="#3F3D56"/>
<path d="M168.786 10.9671C171.567 10.9671 173.821 8.71055 173.821 5.92692C173.821 3.14329 171.567 0.886719 168.786 0.886719C166.006 0.886719 163.751 3.14329 163.751 5.92692C163.751 8.71055 166.006 10.9671 168.786 10.9671Z" stroke="#3F3D56" stroke-width="2" stroke-miterlimit="10"/>
<path d="M111.547 42.3949C114.328 42.3949 116.582 40.1383 116.582 37.3547C116.582 34.571 114.328 32.3145 111.547 32.3145C108.766 32.3145 106.512 34.571 106.512 37.3547C106.512 40.1383 108.766 42.3949 111.547 42.3949Z" stroke="#3F3D56" stroke-width="2" stroke-miterlimit="10"/>
<path d="M223.512 60.9745C232.514 60.9745 239.812 53.6694 239.812 44.6581C239.812 35.6469 232.514 28.3418 223.512 28.3418C214.511 28.3418 207.213 35.6469 207.213 44.6581C207.213 53.6694 214.511 60.9745 223.512 60.9745Z" fill="#FF6584"/>
<path d="M261.028 188.831L269.739 223.996L278.451 222.589L269.739 182.361L261.028 188.831Z" fill="#FBBEBE"/>
<path d="M272.832 221.745C272.832 221.745 267.87 223.424 268.525 224.553C269.18 225.682 269.179 232.714 266.93 235.248C264.681 237.781 259.061 245.656 265.524 245.937C271.988 246.218 278.451 241.999 278.451 241.999V234.685L279.575 241.436H280.699V233.841C280.699 233.841 283.51 229.059 281.823 226.245C280.137 223.431 279.038 220.98 276.918 221.222C274.797 221.463 272.832 221.745 272.832 221.745Z" fill="#2F2E41"/>
<path d="M226.744 218.65L225.339 226.246H235.175V218.65H226.744Z" fill="#FBBEBE"/>
<path d="M227.587 224.557C227.587 224.557 224.777 224.276 223.933 228.214C223.09 232.153 215.503 240.512 212.693 241.356C209.883 242.2 209.883 245.013 213.536 245.576C217.188 246.138 226.462 246.42 228.71 243.325C230.958 240.23 234.049 235.248 234.049 235.248L232.644 245.857H235.173C235.173 245.857 237.421 235.529 239.669 232.995C241.917 230.46 235.173 224.555 234.048 224.555L227.587 224.557Z" fill="#2F2E41"/>
<path d="M213.818 103.592C213.818 103.592 211.85 108.937 208.479 109.781C205.107 110.624 180.096 116.532 180.096 116.532C180.096 116.532 158.176 117.094 164.921 121.877C171.666 126.66 182.625 121.877 182.625 121.877C182.625 121.877 214.66 117.939 217.19 113.717C218.855 110.845 220.265 107.833 221.405 104.715L213.818 103.592Z" fill="#FBBEBE"/>
<path d="M224.496 79.9609C224.496 79.9609 208.479 106.123 210.445 106.686C212.411 107.249 230.679 113.156 231.521 110.906C232.364 108.655 232.365 98.2465 232.365 98.2465L224.496 79.9609Z" fill="#2F2E41"/>
<path opacity="0.1" d="M224.496 79.9609C224.496 79.9609 208.479 106.123 210.445 106.686C212.411 107.249 230.679 113.156 231.521 110.906C232.364 108.655 232.365 98.2465 232.365 98.2465L224.496 79.9609Z" fill="black"/>
<path d="M266.087 73.7734L302.337 92.3402C302.337 92.3402 322.852 97.6856 318.356 101.905C313.86 106.125 299.247 98.248 299.247 98.248L259.062 79.9624L266.087 73.7734Z" fill="#FBBEBE"/>
<path d="M219.719 59.1449C219.719 59.1449 226.744 69.8347 226.183 72.3664C226.337 72.8285 226.391 73.3181 226.343 73.8029C226.294 74.2876 226.144 74.7567 225.902 75.1792C225.059 76.3048 225.34 83.0562 225.34 83.0562L228.15 86.9946L231.803 74.898L233.487 61.9577C233.487 61.9577 229.693 56.7534 230.255 54.2218C230.817 51.6902 219.719 59.1449 219.719 59.1449Z" fill="#FBBEBE"/>
<path d="M241.919 119.908C241.919 119.908 226.182 162.105 226.182 180.671C226.182 199.237 220.28 220.336 224.776 222.305C229.272 224.275 252.035 224.556 252.6 222.305C253.165 220.055 249.79 128.628 248.104 124.971C246.418 121.315 241.919 119.908 241.919 119.908Z" fill="#2F2E41"/>
<path opacity="0.1" d="M241.919 119.908C241.919 119.908 226.182 162.105 226.182 180.671C226.182 199.237 220.28 220.336 224.776 222.305C229.272 224.275 252.035 224.556 252.6 222.305C253.165 220.055 249.79 128.628 248.104 124.971C246.418 121.315 241.919 119.908 241.919 119.908Z" fill="black"/>
<path d="M223.373 60.8328C229.115 60.8328 233.77 56.1728 233.77 50.4242C233.77 44.6757 229.115 40.0156 223.373 40.0156C217.63 40.0156 212.975 44.6757 212.975 50.4242C212.975 56.1728 217.63 60.8328 223.373 60.8328Z" fill="#FBBEBE"/>
<path d="M226.464 81.9309L225.711 75.5823C225.711 75.5823 223.373 78.8369 223.373 81.3685C223.373 83.9001 221.967 92.9001 227.869 98.5284C233.77 104.157 234.894 105.28 235.176 106.405C235.458 107.531 236.859 107.531 236.859 107.531L245.012 140.44C245.012 140.44 247.541 227.929 251.475 229.057C255.409 230.184 267.493 229.057 268.336 227.65C269.179 226.243 266.931 188.829 266.931 188.829C266.931 188.829 273.113 222.024 275.361 222.024C277.609 222.024 279.014 217.242 278.452 216.961C277.889 216.68 274.517 195.019 273.112 188.267C271.707 181.514 272.269 124.409 272.269 124.409C272.269 124.409 276.765 117.094 261.31 102.748C261.31 102.748 251.474 74.0539 250.912 74.0539C250.351 74.0539 239.393 58.582 239.393 58.582C239.393 58.582 233.21 58.582 232.086 62.2393C230.961 65.8966 226.464 81.9309 226.464 81.9309Z" fill="#2F2E41"/>
<path d="M236.019 60.8325L239.391 58.582C239.391 58.582 253.442 67.0214 263.277 67.5838C273.112 68.1462 272.832 73.7727 268.898 77.7112C264.963 81.6497 249.508 95.1523 248.946 91.7771C248.384 88.4019 236.019 60.8325 236.019 60.8325Z" fill="#2F2E41"/>
<path d="M223.513 46.9069C229.721 46.9069 234.753 43.8843 234.753 40.1556C234.753 36.427 229.721 33.4043 223.513 33.4043C217.305 33.4043 212.272 36.427 212.272 40.1556C212.272 43.8843 217.305 46.9069 223.513 46.9069Z" fill="#FF6584"/>
<path d="M224.636 35.0925C228.361 35.0925 231.38 32.0698 231.38 28.3412C231.38 24.6125 228.361 21.5898 224.636 21.5898C220.912 21.5898 217.892 24.6125 217.892 28.3412C217.892 32.0698 220.912 35.0925 224.636 35.0925Z" fill="#FF6584"/>
<path d="M215.645 24.6829C215.645 23.0142 216.262 21.4046 217.378 20.1646C218.494 18.9246 220.028 18.1421 221.686 17.968C221.453 17.9438 221.219 17.9317 220.985 17.9316C220.069 17.9319 219.164 18.1185 218.323 18.4803C217.483 18.842 216.724 19.3711 216.094 20.0356C215.465 20.7 214.976 21.4859 214.659 22.3452C214.343 23.2046 214.204 24.1195 214.251 25.0343C214.299 25.949 214.532 26.8445 214.936 27.6663C215.341 28.488 215.908 29.2188 216.603 29.8141C217.299 30.4094 218.108 30.8568 218.982 31.1291C219.855 31.4014 220.775 31.4929 221.685 31.3979C220.028 31.2236 218.493 30.441 217.378 29.2011C216.262 27.9611 215.645 26.3516 215.645 24.6829Z" fill="#FF6584"/>
<path opacity="0.625" d="M58.8863 83.8568C69.1228 83.8568 77.4211 75.5497 77.4211 65.3024C77.4211 55.0551 69.1228 46.748 58.8863 46.748C48.6499 46.748 40.3516 55.0551 40.3516 65.3024C40.3516 75.5497 48.6499 83.8568 58.8863 83.8568Z" fill="#3D138E"/>
<path d="M169.088 245.945H302.857" stroke="#3F3D56" stroke-width="2" stroke-miterlimit="10"/>
<path d="M68.5752 64.1624V65.0495C68.5737 67.1243 67.9023 69.1432 66.6611 70.8049C65.42 72.4666 63.6755 73.6822 61.6879 74.2705C59.7002 74.8587 57.5759 74.7881 55.6317 74.0691C53.6874 73.3501 52.0274 72.0213 50.8991 70.2807C49.7708 68.5402 49.2348 66.4813 49.3708 64.4109C49.5069 62.3405 50.3078 60.3696 51.6542 58.792C53.0005 57.2145 54.8202 56.1149 56.8418 55.6571C58.8634 55.1993 60.9786 55.4079 62.8722 56.2517" stroke="white" stroke-width="3" stroke-linecap="round" stroke-linejoin="round"/>
<path d="M68.5698 57.3496L58.96 66.982L56.0757 64.0912" stroke="white" stroke-width="3" stroke-linecap="round" stroke-linejoin="round"/>
<path d="M93.0481 79.7463H102.048V81.1063H94.6681V86.0663H101.648V87.4463H94.6681V92.6263H102.048V93.9863H93.0481V79.7463ZM115.75 93.9863H113.81L109.39 87.9463L104.99 93.9863H103.03L108.45 86.6863L103.29 79.7463H105.25L109.41 85.4663L113.57 79.7463H115.51L110.33 86.7063L115.75 93.9863ZM126.704 90.3263H119.264L117.684 93.9863H115.984L122.244 79.7463H123.684L129.944 93.9863H128.264L126.704 90.3263ZM126.124 88.9663L122.984 81.6463L119.844 88.9663H126.124ZM145.532 79.7463V93.9863H144.012V83.4063L139.392 93.9863H138.232L133.572 83.4863L133.592 93.9863H132.072V79.7463H133.432L138.832 92.0263L144.172 79.7463H145.532ZM99.2881 119.166C97.8881 119.166 96.6614 118.866 95.6081 118.266C94.5681 117.666 93.7681 116.82 93.2081 115.726C92.6481 114.62 92.3681 113.326 92.3681 111.846C92.3681 110.38 92.6481 109.1 93.2081 108.006C93.7681 106.9 94.5681 106.053 95.6081 105.466C96.6614 104.866 97.8881 104.566 99.2881 104.566C100.248 104.566 101.148 104.72 101.988 105.026C102.841 105.32 103.548 105.733 104.108 106.266L103.268 108.146C102.628 107.626 101.988 107.253 101.348 107.026C100.721 106.786 100.048 106.666 99.3281 106.666C97.9548 106.666 96.8881 107.113 96.1281 108.006C95.3814 108.9 95.0081 110.18 95.0081 111.846C95.0081 113.526 95.3814 114.82 96.1281 115.726C96.8748 116.62 97.9414 117.066 99.3281 117.066C100.048 117.066 100.721 116.953 101.348 116.726C101.988 116.486 102.628 116.106 103.268 115.586L104.108 117.466C103.548 118 102.841 118.42 101.988 118.726C101.148 119.02 100.248 119.166 99.2881 119.166ZM118.239 118.986H115.519L113.699 114.246C113.539 113.806 113.293 113.5 112.959 113.326C112.626 113.153 112.193 113.066 111.659 113.066H109.079V118.986H106.519V104.746H112.619C114.233 104.746 115.459 105.1 116.299 105.806C117.139 106.513 117.559 107.526 117.559 108.846C117.559 109.793 117.306 110.6 116.799 111.266C116.306 111.92 115.599 112.386 114.679 112.666C115.519 112.84 116.126 113.426 116.499 114.426L118.239 118.986ZM112.259 111.066C113.233 111.066 113.953 110.886 114.419 110.526C114.886 110.166 115.119 109.62 115.119 108.886C115.119 108.166 114.886 107.633 114.419 107.286C113.966 106.926 113.246 106.746 112.259 106.746H109.039V111.066H112.259ZM120.562 104.746H130.082V106.786H123.082V110.726H129.662V112.766H123.082V116.946H130.082V118.986H120.562V104.746ZM141.683 115.646H134.723L133.283 118.986H130.683L137.123 104.746H139.223L145.683 118.986H143.103L141.683 115.646ZM140.823 113.646L138.203 107.546L135.583 113.646H140.823ZM148.805 106.866H144.165V104.746H156.065V106.866H151.405V118.986H148.805V106.866ZM157.848 104.746H167.368V106.786H160.368V110.726H166.948V112.766H160.368V116.946H167.368V118.986H157.848V104.746ZM169.742 104.746H174.982C177.315 104.746 179.122 105.366 180.402 106.606C181.695 107.846 182.342 109.593 182.342 111.846C182.342 114.113 181.695 115.873 180.402 117.126C179.122 118.366 177.315 118.986 174.982 118.986H169.742V104.746ZM174.822 116.886C178.102 116.886 179.742 115.206 179.742 111.846C179.742 108.513 178.102 106.846 174.822 106.846H172.322V116.886H174.822Z" fill="#3D138E"/>
</g>
<defs>
<clipPath id="clip0_338:648">
<rect width="319" height="247" fill="white"/>
</clipPath>
</defs>
</svg>
