<svg width="14" height="14" viewBox="0 0 14 14" fill="none" xmlns="http://www.w3.org/2000/svg">
<path d="M8.54193 6.99954L13.7763 1.76491C13.9203 1.62081 13.9998 1.42857 14 1.22358C14 1.01847 13.9206 0.826 13.7763 0.68213L13.3176 0.223545C13.1734 0.0791057 12.9812 0 12.776 0C12.5711 0 12.3788 0.0791057 12.2346 0.223545L7.00023 5.45784L1.76559 0.223545C1.62161 0.0791057 1.42925 0 1.22415 0C1.01927 0 0.826911 0.0791057 0.682927 0.223545L0.224 0.68213C-0.0746667 0.980797 -0.0746667 1.46659 0.224 1.76491L5.45852 6.99954L0.224 12.234C0.0799024 12.3783 0.000569106 12.5705 0.000569106 12.7755C0.000569106 12.9805 0.0799024 13.1727 0.224 13.317L0.682813 13.7755C0.826797 13.9199 1.01927 13.9991 1.22403 13.9991C1.42914 13.9991 1.6215 13.9199 1.76548 13.7755L7.00011 8.54114L12.2345 13.7755C12.3787 13.9199 12.571 13.9991 12.7759 13.9991H12.7761C12.9811 13.9991 13.1733 13.9199 13.3175 13.7755L13.7762 13.317C13.9202 13.1729 13.9997 12.9805 13.9997 12.7755C13.9997 12.5705 13.9202 12.3783 13.7762 12.2341L8.54193 6.99954Z" fill="#707070"/>
</svg>
