<svg width="112" height="40" viewBox="0 0 112 40" fill="none" xmlns="http://www.w3.org/2000/svg">
<path d="M31.968 16.168H34.597C35.851 16.168 36.819 16.509 37.501 17.191C38.1903 17.8657 38.535 18.8263 38.535 20.073C38.535 21.327 38.1903 22.295 37.501 22.977C36.819 23.659 35.851 24 34.597 24H31.968V16.168ZM34.542 23.23C35.554 23.23 36.313 22.966 36.819 22.438C37.3323 21.91 37.589 21.1217 37.589 20.073C37.589 17.983 36.5733 16.938 34.542 16.938H32.87V23.23H34.542ZM42.639 18.335C42.8224 18.335 42.991 18.357 43.145 18.401L43.123 19.215C42.9544 19.1563 42.76 19.127 42.54 19.127C42.0047 19.127 41.605 19.2957 41.341 19.633C41.0844 19.963 40.956 20.3663 40.956 20.843V24H40.065V20.018C40.065 19.446 40.0357 18.929 39.977 18.467H40.824L40.912 19.49C41.0514 19.116 41.275 18.83 41.583 18.632C41.891 18.434 42.243 18.335 42.639 18.335ZM46.231 24.077C45.7103 24.077 45.252 23.9597 44.856 23.725C44.46 23.4903 44.152 23.1567 43.932 22.724C43.7193 22.2913 43.613 21.7853 43.613 21.206C43.613 20.6267 43.7193 20.1207 43.932 19.688C44.152 19.2553 44.46 18.9217 44.856 18.687C45.252 18.4523 45.7103 18.335 46.231 18.335C46.7516 18.335 47.21 18.4523 47.606 18.687C48.002 18.9217 48.3063 19.2553 48.519 19.688C48.739 20.1207 48.849 20.6267 48.849 21.206C48.849 21.7853 48.739 22.2913 48.519 22.724C48.3063 23.1567 48.002 23.4903 47.606 23.725C47.21 23.9597 46.7516 24.077 46.231 24.077ZM46.231 23.34C46.781 23.34 47.2026 23.1603 47.496 22.801C47.7893 22.4343 47.936 21.9027 47.936 21.206C47.936 20.5313 47.7856 20.0107 47.485 19.644C47.1843 19.27 46.7663 19.083 46.231 19.083C45.6883 19.083 45.2666 19.27 44.966 19.644C44.6653 20.0107 44.515 20.5313 44.515 21.206C44.515 21.9027 44.6616 22.4343 44.955 22.801C45.2556 23.1603 45.681 23.34 46.231 23.34ZM52.9989 18.335C53.4829 18.335 53.9119 18.456 54.2859 18.698C54.6599 18.94 54.9495 19.281 55.1549 19.721C55.3602 20.1537 55.4629 20.656 55.4629 21.228C55.4629 21.8 55.3602 22.3023 55.1549 22.735C54.9495 23.1603 54.6599 23.4903 54.2859 23.725C53.9192 23.9597 53.4902 24.077 52.9989 24.077C52.5662 24.077 52.1885 23.9817 51.8659 23.791C51.5432 23.6003 51.2975 23.329 51.1289 22.977V26.376H50.2379V20.018C50.2379 19.446 50.2085 18.929 50.1499 18.467H50.9969L51.0849 19.534C51.2389 19.1527 51.4809 18.8593 51.8109 18.654C52.1482 18.4413 52.5442 18.335 52.9989 18.335ZM52.8339 23.34C53.3765 23.34 53.7945 23.1567 54.0879 22.79C54.3885 22.4233 54.5389 21.9027 54.5389 21.228C54.5389 20.5533 54.3885 20.029 54.0879 19.655C53.7872 19.2737 53.3692 19.083 52.8339 19.083C52.2839 19.083 51.8622 19.2663 51.5689 19.633C51.2755 19.9997 51.1289 20.524 51.1289 21.206C51.1289 21.888 51.2755 22.416 51.5689 22.79C51.8622 23.1567 52.2839 23.34 52.8339 23.34ZM61.7066 15.904V24H60.8266V22.999C60.6653 23.3437 60.4196 23.6113 60.0896 23.802C59.7669 23.9853 59.3893 24.077 58.9566 24.077C58.4726 24.077 58.0436 23.956 57.6696 23.714C57.3029 23.472 57.0169 23.1347 56.8116 22.702C56.6063 22.262 56.5036 21.756 56.5036 21.184C56.5036 20.612 56.6026 20.1133 56.8006 19.688C57.0059 19.2553 57.2956 18.9217 57.6696 18.687C58.0436 18.4523 58.4726 18.335 58.9566 18.335C59.3893 18.335 59.7669 18.4303 60.0896 18.621C60.4123 18.8043 60.6543 19.0647 60.8156 19.402V15.904H61.7066ZM59.1326 23.34C59.6753 23.34 60.0933 23.1567 60.3866 22.79C60.6799 22.416 60.8266 21.888 60.8266 21.206C60.8266 20.5313 60.6799 20.0107 60.3866 19.644C60.0933 19.27 59.6753 19.083 59.1326 19.083C58.5899 19.083 58.1646 19.2663 57.8566 19.633C57.5559 19.9997 57.4056 20.5167 57.4056 21.184C57.4056 21.866 57.5559 22.3977 57.8566 22.779C58.1646 23.153 58.5899 23.34 59.1326 23.34ZM65.7173 24.077C65.1966 24.077 64.7383 23.9597 64.3423 23.725C63.9463 23.4903 63.6383 23.1567 63.4183 22.724C63.2056 22.2913 63.0993 21.7853 63.0993 21.206C63.0993 20.6267 63.2056 20.1207 63.4183 19.688C63.6383 19.2553 63.9463 18.9217 64.3423 18.687C64.7383 18.4523 65.1966 18.335 65.7173 18.335C66.238 18.335 66.6963 18.4523 67.0923 18.687C67.4883 18.9217 67.7926 19.2553 68.0053 19.688C68.2253 20.1207 68.3353 20.6267 68.3353 21.206C68.3353 21.7853 68.2253 22.2913 68.0053 22.724C67.7926 23.1567 67.4883 23.4903 67.0923 23.725C66.6963 23.9597 66.238 24.077 65.7173 24.077ZM65.7173 23.34C66.2673 23.34 66.689 23.1603 66.9823 22.801C67.2756 22.4343 67.4223 21.9027 67.4223 21.206C67.4223 20.5313 67.272 20.0107 66.9713 19.644C66.6706 19.27 66.2526 19.083 65.7173 19.083C65.1746 19.083 64.753 19.27 64.4523 19.644C64.1516 20.0107 64.0013 20.5313 64.0013 21.206C64.0013 21.9027 64.148 22.4343 64.4413 22.801C64.742 23.1603 65.1673 23.34 65.7173 23.34ZM78.0638 18.467L76.0178 24H75.1598L73.5758 19.677L72.0028 24H71.1448L69.0988 18.467H70.0338L71.5958 22.933L73.2128 18.467H73.9938L75.5888 22.944L77.1838 18.467H78.0638ZM81.9813 18.335C83.3086 18.335 83.9723 19.0647 83.9723 20.524V24H83.0813V20.568C83.0813 20.0547 82.9786 19.6807 82.7733 19.446C82.568 19.204 82.2453 19.083 81.8053 19.083C81.292 19.083 80.8813 19.2407 80.5733 19.556C80.2653 19.8713 80.1113 20.2967 80.1113 20.832V24H79.2203V20.018C79.2203 19.446 79.191 18.929 79.1323 18.467H79.9793L80.0673 19.457C80.236 19.0977 80.489 18.8227 80.8263 18.632C81.1636 18.434 81.5486 18.335 81.9813 18.335Z" fill="#707070"/>
<path d="M14 30C18.9706 30 23 25.9706 23 21C23 16.0294 18.9706 12 14 12C9.02944 12 5 16.0294 5 21C5 25.9706 9.02944 30 14 30Z" fill="#939498"/>
<path d="M14 29.5C18.6944 29.5 22.5 25.6944 22.5 21C22.5 16.3056 18.6944 12.5 14 12.5C9.30558 12.5 5.5 16.3056 5.5 21C5.5 25.6944 9.30558 29.5 14 29.5Z" stroke="#939498"/>
<path d="M14 26L8 18H20L14 26Z" fill="white"/>
</svg>
