<svg width="600" height="200" viewBox="0 0 469 214" fill="none" xmlns="http://www.w3.org/2000/svg">
<path d="M262.409 17.0988C262.82 17.1238 263.172 16.8379 263.195 16.4601C263.218 16.0823 262.903 15.7557 262.492 15.7307C262.081 15.7056 261.728 15.9916 261.705 16.3694C261.682 16.7472 261.997 17.0737 262.409 17.0988Z" fill="#8270B0"/>
<path d="M324.961 36.8903C325.372 36.9153 325.724 36.6294 325.747 36.2516C325.77 35.8738 325.456 35.5472 325.044 35.5222C324.633 35.4971 324.281 35.7831 324.258 36.1609C324.235 36.5387 324.55 36.8652 324.961 36.8903Z" fill="#4D3B8F"/>
<path d="M180.774 26.7697C181.186 26.7947 181.538 26.5088 181.561 26.131C181.584 25.7532 181.269 25.4266 180.858 25.4016C180.446 25.3765 180.094 25.6625 180.071 26.0403C180.048 26.418 180.363 26.7446 180.774 26.7697Z" fill="#8270B0"/>
<path d="M202.109 17.2221C202.521 17.2471 202.873 16.9612 202.896 16.5834C202.919 16.2056 202.604 15.879 202.193 15.854C201.781 15.8289 201.429 16.1149 201.406 16.4927C201.383 16.8704 201.698 17.197 202.109 17.2221Z" fill="#30227B"/>
<path d="M187.806 28.5309C188.217 28.556 188.569 28.27 188.592 27.8922C188.615 27.5144 188.3 27.1878 187.889 27.1628C187.478 27.1377 187.126 27.4237 187.103 27.8015C187.08 28.1793 187.394 28.5059 187.806 28.5309Z" fill="#31227D"/>
<path d="M131.326 182.508L132.46 182.577L132.523 181.536L133.161 181.575L133.097 182.616L134.231 182.685L134.195 183.271L133.062 183.202L132.998 184.243L132.361 184.204L132.424 183.163L131.291 183.094L131.326 182.508Z" fill="#906FAA"/>
<path d="M21.6492 168.599C22.4305 168.646 23.0994 168.103 23.1431 167.386C23.1868 166.668 22.5888 166.048 21.8074 166C21.026 165.953 20.3572 166.496 20.3135 167.213C20.2698 167.931 20.8678 168.551 21.6492 168.599Z" fill="#8E8CC3"/>
<path d="M39.0231 182.753C39.5914 182.788 40.0779 182.393 40.1096 181.871C40.1414 181.349 39.7065 180.898 39.1382 180.863C38.5699 180.829 38.0835 181.224 38.0517 181.746C38.0199 182.268 38.4548 182.719 39.0231 182.753Z" fill="#8E8CC3"/>
<path d="M54.493 180.379C54.9255 180.405 55.2956 180.104 55.3198 179.707C55.344 179.31 55.013 178.967 54.5806 178.941C54.1482 178.914 53.778 179.215 53.7538 179.612C53.7296 180.009 54.0606 180.352 54.493 180.379Z" fill="#444797"/>
<path d="M64.6793 166.367C65.1117 166.393 65.4819 166.092 65.5061 165.695C65.5302 165.298 65.1993 164.955 64.7669 164.929C64.3344 164.902 63.9643 165.203 63.9401 165.6C63.9159 165.997 64.2469 166.34 64.6793 166.367Z" fill="#8E8CC3"/>
<path d="M98.4138 167.909C98.8462 167.936 99.2164 167.635 99.2406 167.238C99.2648 166.841 98.9338 166.497 98.5014 166.471C98.0689 166.445 97.6988 166.745 97.6746 167.142C97.6504 167.54 97.9814 167.883 98.4138 167.909Z" fill="#8E8CC3"/>
<path d="M108.18 160.785C108.481 160.803 108.738 160.594 108.755 160.318C108.772 160.041 108.542 159.802 108.241 159.784C107.94 159.766 107.682 159.975 107.665 160.251C107.648 160.528 107.879 160.767 108.18 160.785Z" fill="#424193"/>
<path d="M101.893 108.721C101.893 108.721 134.09 106.563 127.136 122.027C127.136 122.027 107.943 149.015 130.047 152.5C140.154 154.094 149.748 149.704 151.383 142.989C151.904 140.846 151.928 138.283 151.08 135.253C147.595 122.802 177.703 129.657 177.703 129.657C177.703 129.657 197.224 132.706 215.948 166.525C215.948 166.525 223.466 183.282 235.218 160.618C242.343 146.88 255.431 140.596 264.636 137.778C271.504 135.743 278.917 135.745 285.83 137.786C291.226 139.4 297.206 142.104 300.146 146.529C306.231 155.687 333.914 181.067 341.068 152.63C341.068 152.63 341.325 136.798 330.198 118.235C319.071 99.671 347.13 103.575 353.555 116.048" stroke="#5E56A1" stroke-linecap="round" stroke-linejoin="round" stroke-dasharray="6 5"/>
<path d="M127.436 144.237L129.574 160.333L143.335 158.818L141.401 145.677L138.003 143.234L127.436 144.237Z" fill="#FFE2AA"/>
<path d="M138.003 143.234L138.257 145.375C138.274 145.513 138.348 145.64 138.464 145.73C138.581 145.82 138.73 145.864 138.881 145.855L141.402 145.676L138.003 143.234Z" fill="#E7AF4C"/>
<path d="M130.102 144.039C130.102 144.039 130.017 142.276 130.946 142.274C131.643 142.273 131.847 143.035 131.905 143.417C131.937 143.628 131.979 143.837 132.021 144.047C132.186 144.885 132.413 146.685 131.304 146.572C129.86 146.425 130.408 145.497 130.408 145.497" stroke="#E25267" stroke-linecap="round" stroke-linejoin="round"/>
<path d="M273.61 127.539L267.018 142.496L279.928 147.295L285.145 135.001L283.441 131.365L273.61 127.539Z" fill="#634F9B"/>
<path d="M283.439 131.364L282.536 133.34C282.477 133.468 282.475 133.612 282.531 133.742C282.586 133.872 282.695 133.977 282.833 134.035L285.146 135.001L283.439 131.364Z" fill="#865AA1"/>
<path d="M276.061 128.551C276.061 128.551 276.915 126.979 277.733 127.39C278.347 127.699 278.125 128.453 277.976 128.811C277.893 129.009 277.821 129.21 277.746 129.411C277.45 130.214 276.703 131.88 275.786 131.289C274.593 130.52 275.563 129.956 275.563 129.956" stroke="#FFB729" stroke-linecap="round" stroke-linejoin="round"/>
<path d="M173.681 122.616L200.369 133.601C200.431 133.627 200.487 133.663 200.533 133.708C200.58 133.753 200.616 133.806 200.641 133.863C200.665 133.921 200.677 133.983 200.676 134.044C200.675 134.106 200.66 134.167 200.633 134.223L194.927 146.134C194.872 146.248 194.77 146.336 194.644 146.38C194.518 146.424 194.377 146.42 194.253 146.368L167.605 135.385C167.481 135.334 167.384 135.24 167.334 135.124C167.285 135.007 167.287 134.878 167.342 134.765L173.008 122.851C173.062 122.738 173.164 122.649 173.29 122.605C173.416 122.561 173.557 122.565 173.681 122.616Z" fill="#EB5F7E"/>
<path d="M303.753 159.185L331.554 151.449C331.618 151.431 331.686 151.425 331.753 151.432C331.819 151.438 331.885 151.456 331.944 151.485C332.004 151.514 332.056 151.554 332.099 151.602C332.143 151.649 332.175 151.704 332.195 151.763L336.437 164.273C336.457 164.332 336.464 164.394 336.458 164.455C336.452 164.517 336.433 164.576 336.402 164.631C336.371 164.685 336.328 164.733 336.277 164.772C336.225 164.811 336.166 164.841 336.102 164.858L308.332 172.571C308.268 172.589 308.201 172.595 308.134 172.589C308.067 172.583 308.002 172.565 307.943 172.536C307.883 172.507 307.83 172.467 307.787 172.419C307.744 172.371 307.712 172.316 307.692 172.257L303.418 159.772C303.398 159.713 303.391 159.65 303.397 159.589C303.402 159.527 303.421 159.468 303.453 159.413C303.484 159.359 303.526 159.311 303.578 159.271C303.63 159.232 303.689 159.203 303.753 159.185Z" fill="#FFC95F"/>
<path d="M86.0277 40.1125C86.4391 40.1375 86.7913 39.8515 86.8143 39.4738C86.8373 39.096 86.5224 38.7694 86.1111 38.7443C85.6997 38.7193 85.3476 39.0052 85.3246 39.383C85.3015 39.7608 85.6164 40.0874 86.0277 40.1125Z" fill="#8270B0"/>
<path d="M121.076 64.9984C121.487 65.0235 121.839 64.7375 121.862 64.3597C121.885 63.9819 121.57 63.6554 121.159 63.6303C120.748 63.6053 120.395 63.8912 120.372 64.269C120.349 64.6468 120.664 64.9734 121.076 64.9984Z" fill="#63559F"/>
<path d="M155.951 75.4757C156.362 75.5008 156.714 75.2148 156.737 74.837C156.76 74.4592 156.445 74.1327 156.034 74.1076C155.622 74.0826 155.27 74.3685 155.247 74.7463C155.224 75.1241 155.539 75.4507 155.951 75.4757Z" fill="#42348B"/>
<path d="M87.9108 89.7509C88.3222 89.7759 88.6743 89.49 88.6973 89.1122C88.7203 88.7344 88.4055 88.4078 87.9941 88.3828C87.5827 88.3577 87.2306 88.6437 87.2076 89.0215C87.1846 89.3993 87.4994 89.7258 87.9108 89.7509Z" fill="#362E87"/>
<path d="M180.214 195.378L179.151 195.313L179.21 194.335L178.611 194.299L178.552 195.276L177.487 195.212L177.454 195.762L178.518 195.827L178.459 196.804L179.058 196.841L179.117 195.863L180.181 195.928L180.214 195.378Z" fill="#906FAC"/>
</svg>
