<svg width="28" height="28" viewBox="0 0 28 28" fill="none" xmlns="http://www.w3.org/2000/svg">
<path d="M14 0C12.1615 0 10.341 0.362096 8.64248 1.06568C6.94389 1.76926 5.40053 2.80045 4.10054 4.10055C1.47504 6.72605 0 10.287 0 14C0 17.713 1.47504 21.274 4.10054 23.8995C5.40053 25.1996 6.94389 26.2307 8.64248 26.9343C10.341 27.6379 12.1615 28 14 28C17.713 28 21.274 26.525 23.8995 23.8995C26.525 21.274 28 17.713 28 14C28 12.1615 27.6379 10.341 26.9343 8.64248C26.2307 6.94389 25.1996 5.40053 23.8995 4.10055C22.5995 2.80045 21.0561 1.76926 19.3575 1.06568C17.659 0.362096 15.8385 0 14 0ZM5.6 7H22.4V9.8H5.6V7ZM5.6 12.6H22.4V15.4H5.6V12.6ZM5.6 18.2H22.4V21H5.6V18.2Z" fill="white"/>
</svg>
