<svg width="16" height="22" viewBox="0 0 16 22" fill="none" xmlns="http://www.w3.org/2000/svg">
<path d="M12 10.3333V11.5C12 11.775 11.775 12 11.5 12H4.5C4.225 12 4 11.775 4 11.5V10.3333C4 10.0583 4.225 9.83333 4.5 9.83333H11.5C11.775 9.83333 12 10.0583 12 10.3333ZM11.5 13.3333H4.5C4.225 13.3333 4 13.5583 4 13.8333V15C4 15.275 4.225 15.5 4.5 15.5H11.5C11.775 15.5 12 15.275 12 15V13.8333C12 13.5583 11.775 13.3333 11.5 13.3333ZM16 5.49583V19.3333C16 20.4375 15.1042 21.3333 14 21.3333H2C0.895833 21.3333 0 20.4375 0 19.3333V2C0 0.895833 0.895833 0 2 0H10.5042C11.0333 0 11.5417 0.2125 11.9167 0.5875L15.4125 4.08333C15.7875 4.45417 16 4.96667 16 5.49583ZM10.6667 2.1625V5.33333H13.8375L10.6667 2.1625ZM14 19.3333V7.33333H9.66667C9.1125 7.33333 8.66667 6.8875 8.66667 6.33333V2H2V19.3333H14Z" fill="#707070"/>
</svg>
