<svg width="22" height="14" viewBox="0 0 22 14" fill="none" xmlns="http://www.w3.org/2000/svg">
<path d="M2 0.000132086C1.63867 -0.00572741 1.30469 0.183726 1.12305 0.496226C0.939453 0.806773 0.939453 1.19349 1.12305 1.50404C1.30469 1.81654 1.63867 2.00599 2 2.00013H20C20.3613 2.00599 20.6953 1.81654 20.877 1.50404C21.0605 1.19349 21.0605 0.806773 20.877 0.496226C20.6953 0.183726 20.3613 -0.00572741 20 0.000132086H2ZM2 6.00013C1.63867 5.99427 1.30469 6.18373 1.12305 6.49623C0.939453 6.80677 0.939453 7.19349 1.12305 7.50404C1.30469 7.81654 1.63867 8.00599 2 8.00013H20C20.3613 8.00599 20.6953 7.81654 20.877 7.50404C21.0605 7.19349 21.0605 6.80677 20.877 6.49623C20.6953 6.18373 20.3613 5.99427 20 6.00013H2ZM2 12.0001C1.63867 11.9943 1.30469 12.1837 1.12305 12.4962C0.939453 12.8068 0.939453 13.1935 1.12305 13.504C1.30469 13.8165 1.63867 14.006 2 14.0001H20C20.3613 14.006 20.6953 13.8165 20.877 13.504C21.0605 13.1935 21.0605 12.8068 20.877 12.4962C20.6953 12.1837 20.3613 11.9943 20 12.0001H2Z" fill="#3B0E8A"/>
</svg>
