<svg width="76" height="76" viewBox="0 0 76 76" fill="none" xmlns="http://www.w3.org/2000/svg">
<g clip-path="url(#clip0_127:3084)">
<path d="M54.4953 3.30912C49.6724 1.11462 44.1244 0 38.0033 0C31.8378 0 26.2867 1.11462 21.5082 3.31238C20.7166 3.6765 20.3682 4.617 20.7323 5.41188C21.0997 6.2035 22.0338 6.55188 22.8318 6.18777C27.1954 4.18327 32.3002 3.16677 38.0033 3.16677C43.6684 3.16677 48.7732 4.18327 53.1812 6.19088C53.3933 6.289 53.6182 6.33338 53.8367 6.33338C54.4383 6.33338 55.0147 5.98827 55.2807 5.4055C55.6417 4.61062 55.2902 3.67012 54.4953 3.30912Z" fill="#A6A5A5"/>
<path d="M61.3005 16.305C54.8816 9.78166 46.8225 6.33316 37.997 6.33316C29.2063 6.33316 21.1535 9.78166 14.7125 16.3018C14.0981 16.9257 14.1045 17.9294 14.7251 18.5438C15.349 19.1582 16.3496 19.1487 16.964 18.5312C22.8002 12.6223 30.0708 9.49993 37.997 9.49993C45.9548 9.49993 53.235 12.6223 59.0426 18.528C59.353 18.8415 59.7615 18.9999 60.17 18.9999C60.569 18.9999 60.9711 18.8479 61.2815 18.5439C61.9053 17.9295 61.9149 16.9289 61.3005 16.305Z" fill="#A6A5A5"/>
<path d="M37.9968 12.6666C35.7389 12.6666 33.4969 12.9452 31.3309 13.4962C30.4823 13.7116 29.9693 14.5728 30.1846 15.4216C30.3999 16.2702 31.2676 16.7769 32.1099 16.5647C34.0194 16.0802 36.0018 15.8332 37.9968 15.8332C51.0942 15.8332 61.7468 26.4858 61.7468 39.5832C61.7468 40.4572 62.4562 41.1666 63.3302 41.1666C64.2042 41.1666 64.9136 40.4572 64.9136 39.5832C64.9136 24.7411 52.8391 12.6666 37.9968 12.6666Z" fill="#A6A5A5"/>
<path d="M26.6476 16.872C26.2106 16.1215 25.2447 15.865 24.4816 16.3051C22.4612 17.4863 20.5835 18.9461 18.9082 20.6435C13.9777 25.6279 11.2006 32.3444 11.0866 39.5611C11.074 40.4351 11.7706 41.154 12.6477 41.1666C12.6541 41.1666 12.6636 41.1666 12.6731 41.1666C13.5345 41.1666 14.2406 40.4763 14.2532 39.6086C14.3546 33.212 16.8056 27.2681 21.1597 22.8665C22.6417 21.3655 24.2978 20.0799 26.0807 19.038C26.8343 18.5979 27.0877 17.6289 26.6476 16.872Z" fill="#A6A5A5"/>
<path d="M53.5137 26.0711C49.5933 21.5776 43.9377 19 37.997 19C32.4743 19 27.2968 21.166 23.4145 25.0959C19.5448 29.0035 17.4168 34.2888 17.4168 40.0553C17.4263 43.4626 16.3623 47.5476 14.456 51.4711L13.5661 53.0545C13.1386 53.8176 13.4077 54.7804 14.171 55.211C14.418 55.3504 14.684 55.4169 14.9468 55.4169C15.501 55.4169 16.0393 55.1255 16.3275 54.6094L17.2616 52.9438C19.4497 48.4408 20.5961 43.9822 20.5835 39.9732C20.5835 35.1251 22.3853 30.6347 25.6628 27.3223C28.9498 23.9973 33.3262 22.1669 37.997 22.1669C43.0225 22.1669 47.8105 24.3488 51.126 28.155C51.6991 28.8136 52.703 28.8801 53.3616 28.307C54.0203 27.7305 54.0868 26.7299 53.5137 26.0711Z" fill="#A6A5A5"/>
<path d="M61.5253 57.8359L59.7393 51.9934C58.7354 47.4113 58.6499 43.038 58.5962 40.4224L58.5803 39.5833C58.5803 37.2368 58.1844 34.9314 57.4054 32.7307C57.114 31.9073 56.2179 31.4767 55.385 31.768C54.5616 32.0594 54.131 32.9619 54.4224 33.7884C55.081 35.6473 55.4135 37.5979 55.4135 39.6245L55.4325 40.4859C55.4895 43.2155 55.5781 47.785 56.6801 52.7915L58.4915 58.7575C58.6974 59.4415 59.3275 59.8785 60.0084 59.8785C60.1604 59.8785 60.3155 59.8564 60.4708 59.812C61.3068 59.5554 61.7787 58.675 61.5253 57.8359Z" fill="#A6A5A5"/>
<path d="M56.9052 65.151L55.4327 60.4359C52.8202 52.2785 52.3325 43.1079 52.247 39.5834C52.247 31.7269 45.8535 25.3334 37.997 25.3334C30.1405 25.3334 23.7502 31.8251 23.7502 39.8589C23.7565 41.5246 23.4493 50.3248 16.7613 59.9704C16.2609 60.6893 16.4414 61.6773 17.1572 62.1744C17.8728 62.6715 18.864 62.4943 19.3612 61.7785C26.4102 51.6167 26.9263 42.4239 26.9168 39.8082C26.9168 33.5731 31.8884 28.5032 37.9969 28.5032C44.1085 28.5032 49.0803 33.4748 49.0803 39.6245C49.1943 44.2225 49.7802 53.1652 52.4148 61.3954L53.8778 66.0915C54.0899 66.7692 54.7138 67.203 55.3914 67.203C55.5465 67.203 55.7049 67.1809 55.8633 67.1334C56.6993 66.8705 57.1648 65.9839 56.9052 65.151Z" fill="#A6A5A5"/>
<path d="M45.9137 39.5834C45.9137 35.2198 42.3607 31.6668 37.997 31.6668C33.6334 31.6668 30.0804 35.2198 30.0804 39.6437C30.0994 40.1662 30.4509 52.6048 20.3935 65.6927C19.8615 66.3862 19.9914 67.3806 20.6849 67.9126C21.3815 68.4477 22.3728 68.3116 22.9048 67.6212C33.6493 53.6372 33.2629 40.0933 33.2439 39.5836C33.2439 36.9647 35.375 34.8336 37.9939 34.8336C40.6128 34.8336 42.7439 36.9647 42.747 39.6185C42.7914 41.3918 42.8009 57.3898 30.4382 73.4511C29.9062 74.1446 30.0328 75.139 30.7263 75.671C31.0177 75.8926 31.3564 76.0003 31.6922 76.0003C32.1672 76.0003 32.6358 75.7882 32.9462 75.3828C45.9959 58.4345 45.9579 41.4295 45.9137 39.5834Z" fill="#A6A5A5"/>
<path d="M39.5738 39.5136C39.5327 38.6427 38.8487 37.9492 37.9239 38.0031C37.0531 38.0411 36.3754 38.7789 36.4103 39.6529C36.4103 39.6751 36.4989 41.9931 35.9099 45.6569C35.7738 46.5214 36.3628 47.3353 37.2241 47.4746C37.3096 47.4872 37.3951 47.4936 37.4774 47.4936C38.2406 47.4936 38.9151 46.9394 39.0386 46.1636C39.6847 42.1451 39.5802 39.6181 39.5738 39.5136Z" fill="#A6A5A5"/>
<path d="M36.4674 50.7774C35.6251 50.5273 34.7479 51.0085 34.4978 51.8445C32.5187 58.5294 29.2253 64.7804 24.7159 70.4296C24.1713 71.1136 24.2821 72.108 24.9661 72.6558C25.2574 72.8901 25.6057 73.0009 25.9541 73.0009C26.4196 73.0009 26.8787 72.7983 27.1922 72.4055C31.9581 66.4395 35.4382 59.8244 37.5377 52.7469C37.7848 51.9079 37.3067 51.0244 36.4674 50.7774Z" fill="#A6A5A5"/>
<path d="M51.8131 69.7489L49.9036 63.6848C49.1436 61.4112 48.4342 59.0077 48.4311 58.9982C48.2411 58.3553 47.6711 57.9026 47.003 57.8646C46.319 57.8171 45.7141 58.2097 45.4545 58.8272C45.4196 58.9096 41.892 67.2031 37.8481 73.5681C37.3795 74.306 37.598 75.2845 38.3357 75.7531C38.5986 75.921 38.8931 76.0001 39.1844 76.0001C39.71 76.0001 40.2199 75.7405 40.5207 75.2655C42.9686 71.4116 45.1916 66.9815 46.6419 63.9004C46.7242 64.1537 46.8097 64.4102 46.8952 64.6635L48.7921 70.6991C49.055 71.532 49.9352 72.0006 50.7776 71.7346C51.6104 71.4716 52.0759 70.585 51.8131 69.7489Z" fill="#A6A5A5"/>
</g>
<defs>
<clipPath id="clip0_127:3084">
<rect width="76" height="76" fill="white"/>
</clipPath>
</defs>
</svg>
