<svg width="106" height="81" viewBox="0 0 106 81" fill="none" xmlns="http://www.w3.org/2000/svg">
<path d="M66.2811 37.6196H36.1734C35.6929 37.6189 35.2324 37.4279 34.8927 37.0886C34.5531 36.7492 34.362 36.2891 34.3616 35.8093V22.6298C34.3623 22.1501 34.5534 21.6902 34.893 21.3511C35.2326 21.0119 35.6931 20.821 36.1734 20.8203H66.2811C66.7614 20.821 67.2218 21.0119 67.5614 21.3511C67.9011 21.6902 68.0922 22.1501 68.0929 22.6298V35.8102C68.0922 36.2898 67.9011 36.7497 67.5614 37.0889C67.2218 37.4281 66.7614 37.6189 66.2811 37.6196Z" fill="#E6E6E6"/>
<path d="M2.66314 4.7552C4.13395 4.7552 5.32628 3.96135 5.32628 2.98209C5.32628 2.00283 4.13395 1.20898 2.66314 1.20898C1.19233 1.20898 0 2.00283 0 2.98209C0 3.96135 1.19233 4.7552 2.66314 4.7552Z" fill="#3B0E8A"/>
<path d="M3.08032 4.64554C2.62032 4.64554 2.17065 4.50932 1.78817 4.25409C1.4057 3.99886 1.10759 3.63608 0.93156 3.21165C0.755525 2.78722 0.709465 2.32019 0.799207 1.86962C0.888949 1.41905 1.11045 1.00516 1.43572 0.680314C1.76099 0.355469 2.17542 0.134257 2.62658 0.0446323C3.07774 -0.0449923 3.54538 0.0010068 3.97037 0.176812C4.39535 0.352617 4.7586 0.650328 5.01416 1.03231C5.26973 1.41428 5.40613 1.86337 5.40613 2.32277C5.40613 2.6278 5.34597 2.92984 5.22909 3.21165C5.11221 3.49346 4.94089 3.74953 4.72491 3.96521C4.50894 4.1809 4.25255 4.352 3.97037 4.46873C3.68819 4.58546 3.38575 4.64554 3.08032 4.64554ZM3.08032 0.257099C2.67141 0.257099 2.27168 0.378192 1.93169 0.605073C1.59169 0.831954 1.3267 1.15443 1.17022 1.53172C1.01373 1.90901 0.972787 2.32417 1.05256 2.72469C1.13234 3.12522 1.32925 3.49313 1.61839 3.7819C1.90754 4.07067 2.27592 4.26732 2.67697 4.34699C3.07802 4.42666 3.49373 4.38577 3.87151 4.22949C4.2493 4.07321 4.5722 3.80857 4.79937 3.46902C5.02655 3.12947 5.1478 2.73025 5.1478 2.32188C5.1478 2.05073 5.09432 1.78223 4.99042 1.53172C4.88652 1.28121 4.73424 1.05359 4.54225 0.861857C4.35027 0.670124 4.12235 0.518029 3.87151 0.414264C3.62067 0.310499 3.35183 0.257099 3.08032 0.257099Z" fill="#3F3D56"/>
<path d="M29.2945 32.2396C30.275 32.2396 31.0699 31.4457 31.0699 30.4665C31.0699 29.4872 30.275 28.6934 29.2945 28.6934C28.3139 28.6934 27.519 29.4872 27.519 30.4665C27.519 31.4457 28.3139 32.2396 29.2945 32.2396Z" fill="#E6E6E6"/>
<path d="M29.8307 32.2647C29.3707 32.2647 28.921 32.1285 28.5385 31.8732C28.1561 31.618 27.858 31.2552 27.6819 30.8308C27.5059 30.4064 27.4598 29.9393 27.5496 29.4888C27.6393 29.0382 27.8608 28.6243 28.1861 28.2995C28.5114 27.9746 28.9258 27.7534 29.3769 27.6638C29.8281 27.5741 30.2958 27.6202 30.7208 27.796C31.1457 27.9718 31.509 28.2695 31.7645 28.6515C32.0201 29.0334 32.1565 29.4825 32.1565 29.9419C32.1565 30.558 31.9115 31.1487 31.4753 31.5844C31.0391 32.02 30.4475 32.2647 29.8307 32.2647ZM29.8307 27.8762C29.4218 27.8762 29.0221 27.9973 28.6821 28.2242C28.3421 28.4511 28.0771 28.7736 27.9206 29.1509C27.7641 29.5282 27.7232 29.9433 27.8029 30.3439C27.8827 30.7444 28.0796 31.1123 28.3688 31.4011C28.6579 31.6898 29.0263 31.8865 29.4274 31.9661C29.8284 32.0458 30.2441 32.0049 30.6219 31.8486C30.9997 31.6924 31.3226 31.4277 31.5497 31.0882C31.7769 30.7486 31.8982 30.3494 31.8982 29.941C31.8982 29.6699 31.8447 29.4014 31.7408 29.1509C31.6369 28.9004 31.4846 28.6727 31.2926 28.481C31.1006 28.2893 30.8727 28.1372 30.6219 28.0334C30.371 27.9297 30.1022 27.8762 29.8307 27.8762Z" fill="#3F3D56"/>
<path d="M46.6049 16.2804C47.8306 16.2804 48.8242 15.2881 48.8242 14.064C48.8242 12.84 47.8306 11.8477 46.6049 11.8477C45.3792 11.8477 44.3856 12.84 44.3856 14.064C44.3856 15.2881 45.3792 16.2804 46.6049 16.2804Z" fill="#3B0E8A"/>
<path d="M46.889 15.6162C46.429 15.6162 45.9794 15.48 45.5969 15.2248C45.2144 14.9696 44.9163 14.6068 44.7403 14.1824C44.5642 13.7579 44.5182 13.2909 44.6079 12.8403C44.6977 12.3897 44.9192 11.9759 45.2445 11.651C45.5697 11.3262 45.9841 11.105 46.4353 11.0153C46.8864 10.9257 47.3541 10.9717 47.7791 11.1475C48.2041 11.3233 48.5673 11.621 48.8229 12.003C49.0784 12.385 49.2148 12.8341 49.2148 13.2935C49.2148 13.9095 48.9698 14.5003 48.5336 14.9359C48.0975 15.3715 47.5059 15.6162 46.889 15.6162ZM46.889 11.2287C46.4801 11.2287 46.0804 11.3498 45.7404 11.5767C45.4004 11.8036 45.1354 12.126 44.9789 12.5033C44.8225 12.8806 44.7815 13.2958 44.8613 13.6963C44.9411 14.0968 45.138 14.4647 45.4271 14.7535C45.7162 15.0423 46.0846 15.2389 46.4857 15.3186C46.8868 15.3982 47.3024 15.3574 47.6802 15.2011C48.058 15.0448 48.3809 14.7802 48.6081 14.4406C48.8353 14.101 48.9565 13.7019 48.9565 13.2935C48.9566 13.0222 48.9032 12.7536 48.7994 12.503C48.6955 12.2524 48.5433 12.0247 48.3513 11.8329C48.1593 11.641 47.9313 11.4889 47.6804 11.3851C47.4295 11.2812 47.1606 11.2278 46.889 11.2278V11.2287Z" fill="#3F3D56"/>
<path d="M37.0966 24.9272H6.98895C6.50864 24.9265 6.04821 24.7356 5.70858 24.3964C5.36895 24.0572 5.17783 23.5974 5.17712 23.1177V9.9373C5.17759 9.45747 5.36861 8.9974 5.70827 8.65803C6.04792 8.31865 6.50848 8.12766 6.98895 8.12695H37.0966C37.5772 8.12742 38.038 8.31831 38.3779 8.65771C38.7177 8.99712 38.9089 9.45731 38.9093 9.9373V23.1168C38.9089 23.5968 38.7177 24.057 38.3779 24.3964C38.038 24.7358 37.5772 24.9267 37.0966 24.9272Z" fill="#3B0E8A"/>
<path d="M39.0602 23.5749H8.95255C8.45506 23.5742 7.97814 23.3765 7.62636 23.0252C7.27458 22.6738 7.07663 22.1975 7.07593 21.7007V8.51675C7.07663 8.01991 7.27458 7.5436 7.62636 7.19228C7.97814 6.84095 8.45506 6.64328 8.95255 6.64258H39.0602C39.5577 6.64328 40.0346 6.84095 40.3864 7.19228C40.7382 7.5436 40.9361 8.01991 40.9368 8.51675V21.6972C40.9371 22.1946 40.7395 22.6718 40.3877 23.0239C40.0358 23.376 39.5583 23.5742 39.0602 23.5749ZM8.95255 6.90765C8.5235 6.90812 8.11215 7.07855 7.80876 7.38154C7.50537 7.68454 7.33472 8.09534 7.33425 8.52384V21.7042C7.33472 22.1327 7.50537 22.5435 7.80876 22.8465C8.11215 23.1495 8.5235 23.32 8.95255 23.3204H39.0602C39.4893 23.32 39.9006 23.1495 40.204 22.8465C40.5074 22.5435 40.678 22.1327 40.6785 21.7042V8.51675C40.678 8.08826 40.5074 7.67745 40.204 7.37446C39.9006 7.07146 39.4893 6.90104 39.0602 6.90057L8.95255 6.90765Z" fill="#D8D8D8"/>
<path d="M68.2482 36.2686H38.137C37.6395 36.2679 37.1626 36.0702 36.8108 35.7189C36.459 35.3676 36.2611 34.8913 36.2604 34.3944V21.214C36.2611 20.7172 36.459 20.2409 36.8108 19.8895C37.1626 19.5382 37.6395 19.3405 38.137 19.3398H68.2482C68.7457 19.3405 69.2226 19.5382 69.5744 19.8895C69.9262 20.2409 70.1241 20.7172 70.1248 21.214V34.3935C70.1244 34.8905 69.9265 35.367 69.5747 35.7186C69.2229 36.0701 68.7459 36.2679 68.2482 36.2686ZM38.1405 19.6014C37.7115 19.6018 37.3001 19.7723 36.9968 20.0753C36.6934 20.3783 36.5227 20.7891 36.5222 21.2175V34.3971C36.5227 34.8256 36.6934 35.2364 36.9968 35.5394C37.3001 35.8424 37.7115 36.0128 38.1405 36.0132H68.2482C68.6773 36.0128 69.0886 35.8424 69.392 35.5394C69.6954 35.2364 69.8661 34.8256 69.8665 34.3971V21.214C69.8661 20.7855 69.6954 20.3747 69.392 20.0717C69.0886 19.7687 68.6773 19.5983 68.2482 19.5978L38.1405 19.6014Z" fill="#3F3D56"/>
<path d="M81.003 49.679C80.7503 49.6786 80.5072 49.5823 80.3229 49.4096C80.1386 49.237 80.027 49.0008 80.0105 48.749L79.8622 46.4953C79.845 46.2321 79.9331 45.9728 80.1073 45.7745C80.2814 45.5761 80.5272 45.455 80.7908 45.4377L98.4714 44.2852C99.0141 44.2825 99.5375 44.4868 99.9345 44.8564C100.332 45.226 100.572 45.733 100.608 46.2739C100.643 46.8148 100.471 47.3488 100.125 47.7669C99.7799 48.1851 99.2877 48.4558 98.7492 48.5238L81.0696 49.6763L81.003 49.679Z" fill="#3B0E8A"/>
<path d="M84.4889 49.9691C84.2313 49.9688 83.9839 49.869 83.7983 49.6905C83.6128 49.512 83.5037 49.2687 83.4938 49.0116L83.3678 45.6427C83.3579 45.3791 83.4533 45.1224 83.6329 44.9291C83.8125 44.7357 84.0617 44.6215 84.3256 44.6116L98.8646 44.0691C99.1285 44.0592 99.3855 44.1545 99.5791 44.3339C99.7727 44.5133 99.887 44.7621 99.897 45.0256L100.023 48.3946C100.033 48.6581 99.9375 48.9148 99.7579 49.1081C99.5783 49.3015 99.3291 49.4157 99.0652 49.4256L84.5262 49.9682L84.4889 49.9691Z" fill="#2F2E41"/>
<path d="M101.526 80.9982H99.2641C99 80.998 98.7468 80.8931 98.5601 80.7066C98.3733 80.5201 98.2683 80.2673 98.2681 80.0036V61.1803C98.2683 60.9165 98.3733 60.6636 98.5601 60.4772C98.7468 60.2907 99 60.1858 99.2641 60.1855H101.526C101.79 60.1858 102.043 60.2907 102.23 60.4772C102.417 60.6636 102.522 60.9165 102.522 61.1803V80.0044C102.522 80.268 102.416 80.5207 102.23 80.707C102.043 80.8933 101.79 80.998 101.526 80.9982Z" fill="#2F2E41"/>
<path d="M97.0536 80.9982H94.7917C94.5276 80.998 94.2744 80.8931 94.0876 80.7066C93.9009 80.5201 93.7959 80.2673 93.7957 80.0036V61.1803C93.7959 60.9165 93.9009 60.6636 94.0876 60.4772C94.2744 60.2907 94.5276 60.1858 94.7917 60.1855H97.0536C97.3177 60.1858 97.5709 60.2907 97.7576 60.4772C97.9444 60.6636 98.0494 60.9165 98.0496 61.1803V80.0044C98.0491 80.268 97.944 80.5207 97.7573 80.707C97.5706 80.8933 97.3175 80.998 97.0536 80.9982Z" fill="#2F2E41"/>
<path d="M98.0914 40.5403C102.407 40.5403 105.906 37.0462 105.906 32.736C105.906 28.4258 102.407 24.9316 98.0914 24.9316C93.7755 24.9316 90.2769 28.4258 90.2769 32.736C90.2769 37.0462 93.7755 40.5403 98.0914 40.5403Z" fill="#3B0E8A"/>
<path d="M94.6542 36.1743C94.3896 36.1799 94.1269 36.1288 93.8837 36.0245C93.7195 35.9469 93.5742 35.8343 93.4583 35.6946C93.3423 35.5549 93.2584 35.3915 93.2125 35.216C93.1775 35.0917 93.1717 34.961 93.1956 34.8342C93.2195 34.7073 93.2724 34.5876 93.3502 34.4845C93.4697 34.3493 93.6211 34.246 93.7907 34.1841C93.9603 34.1222 94.1427 34.1036 94.3213 34.1299L93.2951 31.261L93.5836 31.1582L94.79 34.5271L94.5175 34.465C94.3591 34.4127 94.1896 34.404 94.0267 34.4397C93.8638 34.4754 93.7134 34.5543 93.5916 34.6681C93.5427 34.7348 93.51 34.812 93.4958 34.8935C93.4816 34.975 93.4865 35.0586 93.5099 35.1379C93.545 35.2684 93.6078 35.3897 93.6941 35.4937C93.7803 35.5978 93.888 35.682 94.0097 35.7408C94.492 35.8966 95.0099 35.9043 95.4966 35.763L95.5517 36.0644C95.2564 36.1278 94.9561 36.1646 94.6542 36.1743Z" fill="#E0E0E0"/>
<path d="M91.8786 31.8252L90.2635 32.1641L90.3265 32.4634L91.9415 32.1246L91.8786 31.8252Z" fill="#E0E0E0"/>
<path d="M96.9776 30.7549L95.3625 31.0938L95.4255 31.3931L97.0405 31.0542L96.9776 30.7549Z" fill="#E0E0E0"/>
<path d="M74.2723 50.2722L83.081 55.1049C83.1321 55.1387 83.19 55.161 83.2506 55.1701C83.3112 55.1792 83.3731 55.175 83.4319 55.1577C83.4907 55.1403 83.545 55.1103 83.591 55.0698C83.637 55.0293 83.6735 54.9793 83.698 54.9231L85.856 50.4186C85.897 50.2901 85.8905 50.1512 85.8375 50.0272C85.7846 49.9032 85.6888 49.8023 85.5675 49.743L78.2537 45.9787C78.1636 45.9247 78.0567 45.9058 77.9535 45.9256C77.8503 45.9454 77.7581 46.0025 77.6944 46.086L74.0415 49.5231C74.0066 49.5852 73.9843 49.6535 73.9759 49.7242C73.9674 49.7948 73.973 49.8664 73.9923 49.9349C74.0116 50.0034 74.0442 50.0674 74.0883 50.1233C74.1324 50.1792 74.1871 50.2259 74.2492 50.2607L74.2723 50.2722Z" fill="#3F3D56"/>
<path d="M74.8599 49.6072L83.1156 54.321L85.3136 50.3652L78.2287 46.5176L74.8599 49.6072Z" fill="white"/>
<path d="M81.9469 48.2704C81.9909 48.2337 81.9917 48.1622 81.9487 48.1107C81.9057 48.0592 81.8351 48.0472 81.791 48.0839C81.747 48.1206 81.7462 48.1921 81.7892 48.2436C81.8323 48.2952 81.9028 48.3072 81.9469 48.2704Z" fill="#F2F2F2"/>
<path d="M78.855 52.2866C78.8844 52.2621 78.885 52.2146 78.8564 52.1804C78.8279 52.1462 78.7809 52.1383 78.7515 52.1627C78.7222 52.1872 78.7215 52.2348 78.7501 52.269C78.7787 52.3032 78.8257 52.3111 78.855 52.2866Z" fill="#F2F2F2"/>
<path d="M104.617 66.2306H91.438C91.0928 66.2301 90.7618 66.0929 90.5177 65.8491C90.2735 65.6053 90.1362 65.2748 90.1357 64.93L92.8948 43.8025C92.8969 43.4593 93.0349 43.1309 93.2788 42.889C93.5226 42.6471 93.8524 42.5115 94.1961 42.5117H98.8726C100.74 42.5138 102.531 43.2558 103.852 44.5748C105.173 45.8937 105.915 47.6821 105.918 49.5474V64.9291C105.917 65.2738 105.78 65.6043 105.537 65.8482C105.293 66.0921 104.962 66.2297 104.617 66.2306Z" fill="#2F2E41"/>
<path d="M95.6164 42.4354L92.0522 50.237L92.6657 43.6819C92.6641 43.5195 92.6945 43.3584 92.7552 43.2077C92.8159 43.0571 92.9058 42.9199 93.0197 42.804C93.1335 42.6881 93.2691 42.5957 93.4187 42.5322C93.5683 42.4686 93.729 42.4351 93.8916 42.4336L95.6164 42.4354Z" fill="#CCCCCC"/>
<path d="M84.0388 57.4103C83.8466 57.4103 83.6584 57.3548 83.497 57.2506C83.3356 57.1463 83.2078 56.9976 83.129 56.8225L82.2031 54.7622C82.0949 54.5216 82.0869 54.2478 82.1808 54.0012C82.2747 53.7547 82.4628 53.5555 82.7037 53.4474L98.8699 46.2052C99.1274 46.07 99.4099 45.989 99.7 45.967C99.9901 45.9451 100.282 45.9827 100.557 46.0776C100.832 46.1724 101.084 46.3225 101.299 46.5186C101.514 46.7147 101.686 46.9526 101.805 47.2177C101.924 47.4828 101.987 47.7695 101.991 48.06C101.995 48.3505 101.94 48.6387 101.828 48.9069C101.716 49.1751 101.55 49.4176 101.341 49.6194C101.131 49.8212 100.883 49.9781 100.611 50.0803L84.4445 57.3226C84.3171 57.3801 84.1788 57.4101 84.0388 57.4103Z" fill="#3B0E8A"/>
<path d="M88.7544 56.3451C88.5621 56.3452 88.3739 56.2897 88.2124 56.1855C88.051 56.0812 87.9232 55.9324 87.8444 55.7573L86.2634 52.2377C86.1555 51.9969 86.1478 51.7232 86.2418 51.4767C86.3359 51.2302 86.524 51.031 86.765 50.9229L100.04 44.9759C100.281 44.8679 100.555 44.8599 100.802 44.9536C101.049 45.0474 101.248 45.2353 101.356 45.4759L102.937 48.9955C102.991 49.1147 103.02 49.2433 103.024 49.3739C103.028 49.5045 103.006 49.6346 102.959 49.7567C102.913 49.8788 102.843 49.9905 102.753 50.0855C102.663 50.1805 102.555 50.2569 102.436 50.3103L89.1618 56.2573C89.0337 56.315 88.8949 56.3449 88.7544 56.3451Z" fill="#2F2E41"/>
<path d="M96.3567 27.8438C95.0846 27.3757 94.0389 28.6089 92.8857 28.8908C92.3312 28.9908 91.7593 28.921 91.2452 28.6904C90.7311 28.4599 90.2988 28.0795 90.0051 27.5991C89.7007 27.0534 89.5501 26.4355 89.5691 25.8111C89.5882 25.1867 89.7763 24.5791 90.1134 24.0529C90.4717 23.4916 90.9392 23.0079 91.4881 22.6304C92.0371 22.2528 92.6564 21.9892 93.3092 21.8551C94.7978 21.5531 96.3374 21.6155 97.7966 22.0369C99.1988 22.3648 100.558 22.8536 101.848 23.4935C103.052 24.0608 104.074 24.9509 104.801 26.0645C105.462 27.1107 105.685 28.3743 105.422 29.5832C105.252 30.1945 104.928 30.7519 104.48 31.2021C104.019 31.6897 103.489 32.1126 103.06 32.6303C102.682 33.0198 102.436 33.518 102.356 34.0546C102.276 34.5912 102.367 35.1393 102.616 35.6216C102.755 35.8242 102.942 35.9895 103.16 36.103C103.426 36.2395 103.655 35.8432 103.392 35.7067C103.182 35.5834 103.012 35.4024 102.903 35.1852C102.793 34.9681 102.749 34.724 102.775 34.4823C102.8 33.9186 103.016 33.38 103.387 32.9548C103.838 32.414 104.396 31.9796 104.872 31.4583C105.332 30.9762 105.669 30.3901 105.854 29.7499C106.153 28.4942 105.966 27.172 105.33 26.0485C104.641 24.8646 103.63 23.9002 102.414 23.2674C101.106 22.571 99.7168 22.0377 98.2786 21.6796C96.7614 21.215 95.1597 21.0939 93.5897 21.325C92.2028 21.5388 90.9429 22.2541 90.0495 23.3348C89.6355 23.8494 89.3482 24.4537 89.2105 25.0993C89.0728 25.7449 89.0887 26.4137 89.2568 27.0521C89.4396 27.6287 89.773 28.1463 90.2227 28.5514C90.6724 28.9566 91.2221 29.2347 91.8152 29.3572C92.4167 29.4667 93.0376 29.3855 93.5906 29.1249C94.1604 28.7949 94.7538 28.5075 95.366 28.2649C95.6508 28.178 95.9562 28.1861 96.236 28.288C96.513 28.389 96.6328 27.9449 96.3567 27.8438Z" fill="#E0E0E0"/>
</svg>
