<svg width="33" height="40" viewBox="0 0 33 40" fill="none" xmlns="http://www.w3.org/2000/svg">
<path d="M22.9337 10H18.164C16.0386 10 14.5673 10.466 13.2431 11.5599C12.2017 12.4584 11.5801 13.7642 11.5801 15.0531C11.5801 17.0389 13.0942 19.1493 15.8998 19.1493C16.1695 19.1493 16.4682 19.1216 16.7317 19.097L16.6929 19.1914C16.5801 19.4616 16.4734 19.7165 16.4734 20.1143C16.4734 20.8889 16.847 21.3667 17.2083 21.8283L17.2537 21.8868L17.1729 21.8923C16.0144 21.9717 13.858 22.1196 12.2828 23.0877C10.4224 24.1938 10.2778 25.8028 10.2778 26.2694C10.2778 28.1259 12.0079 29.9998 15.8733 29.9998C20.3679 29.9998 22.7197 27.5201 22.7197 25.0708C22.7201 23.2591 21.6578 22.3647 20.5302 21.4152L19.5791 20.6753C19.2851 20.4318 18.9191 20.1288 18.9191 19.5674C18.9191 19.0155 19.2851 18.6511 19.6082 18.3297L19.6419 18.2956C20.669 17.4865 21.8332 16.5692 21.8332 14.5851C21.8332 12.5902 20.5866 11.5593 19.9872 11.0638H21.57C21.5894 11.0638 21.6089 11.0584 21.625 11.0478L22.9884 10.1906C23.0272 10.1661 23.0454 10.1188 23.0326 10.0746C23.0204 10.0304 22.9795 10 22.9337 10ZM17.1496 28.9069C14.4099 28.9069 12.5691 27.6273 12.5691 25.7227C12.5691 24.479 13.322 23.5753 14.8048 23.0381C15.9923 22.6384 17.5251 22.6186 17.5404 22.6186C17.8 22.6186 17.9306 22.6186 18.138 22.6446C20.055 24.0089 20.9766 24.7252 20.9766 26.0895C20.9764 27.8275 19.5099 28.9069 17.1496 28.9069ZM17.1238 18.4183C14.8244 18.4183 13.8702 15.3958 13.8702 13.7775C13.8702 12.9545 14.0573 12.3229 14.4423 11.846C14.8602 11.3232 15.5757 10.9855 16.2651 10.9855C18.3763 10.9855 19.5437 13.8231 19.5437 15.7843C19.5437 16.0938 19.5437 17.035 18.8935 17.6888C18.4563 18.1252 17.7451 18.4183 17.1238 18.4183Z" fill="white"/>
<path d="M29.6187 19.341H27.1054V16.8366C27.1054 16.7795 27.0589 16.7333 27.0021 16.7333H25.921C25.864 16.7333 25.8177 16.7795 25.8177 16.8366V19.341H23.317C23.26 19.341 23.2137 19.3873 23.2137 19.4443V20.5399C23.2137 20.5967 23.26 20.6431 23.317 20.6431H25.8177V23.1637C25.8177 23.2205 25.864 23.267 25.921 23.267H27.0021C27.0589 23.267 27.1054 23.2205 27.1054 23.1637V20.6427H29.6187C29.6757 20.6427 29.722 20.5967 29.722 20.5394V19.4443C29.722 19.3871 29.6759 19.341 29.6187 19.341Z" fill="white"/>
</svg>
