<svg width="24" height="24" viewBox="0 0 24 24" fill="none" xmlns="http://www.w3.org/2000/svg">
<path d="M23.827 16.4267C23.8245 15.0111 23.4303 13.6238 22.6879 12.4185C21.9455 11.2132 20.8841 10.2369 19.621 9.59766C19.5798 12.3081 18.4847 14.896 16.568 16.8129C14.6513 18.7298 12.0635 19.8251 9.35303 19.8667C9.82483 20.8013 10.4835 21.6291 11.2883 22.2988C12.093 22.9685 13.0267 23.4659 14.0315 23.7601C15.0363 24.0542 16.0908 24.139 17.1296 24.009C18.1685 23.8791 19.1697 23.5373 20.071 23.0047L23.793 24.0337L22.759 20.3167C23.4564 19.139 23.8236 17.7953 23.822 16.4267H23.827Z" fill="#F16600"/>
<path d="M18.236 9.45143C18.2355 8.06281 17.9148 6.69301 17.2987 5.4485C16.6827 4.20399 15.788 3.1183 14.6841 2.27582C13.5803 1.43334 12.297 0.85676 10.9341 0.590896C9.57114 0.325031 8.16525 0.377046 6.82569 0.742896C5.48612 1.10875 4.24897 1.77858 3.21038 2.70032C2.17179 3.62207 1.35975 4.7709 0.837377 6.05753C0.315002 7.34415 0.0963619 8.73391 0.198452 10.1188C0.300542 11.5036 0.720613 12.8463 1.42601 14.0424L0.207012 18.4494L4.61501 17.2304C5.9868 18.0395 7.54811 18.4715 9.14068 18.4827C10.7333 18.4939 12.3005 18.0838 13.6835 17.294C15.0665 16.5042 16.2161 15.3629 17.0157 13.9856C17.8154 12.6083 18.2367 11.044 18.237 9.45143H18.236ZM7.81901 7.34943H6.43401C6.43367 6.8881 6.54847 6.43397 6.76801 6.02823C6.98755 5.62248 7.30489 5.27794 7.69125 5.02584C8.07762 4.77375 8.52079 4.62207 8.98059 4.58455C9.4404 4.54704 9.9023 4.62487 10.3244 4.811C10.7465 4.99714 11.1155 5.28568 11.3979 5.65047C11.6803 6.01527 11.8672 6.44478 11.9417 6.90006C12.0161 7.35535 11.9758 7.82202 11.8242 8.25776C11.6727 8.69351 11.4149 9.08455 11.074 9.39543L9.89801 10.4724V11.5534H8.51201V9.86243L10.14 8.37243C10.2828 8.24313 10.3967 8.08521 10.4744 7.90895C10.5521 7.7327 10.5919 7.54205 10.591 7.34943C10.591 6.98184 10.445 6.62931 10.1851 6.36938C9.92514 6.10946 9.5726 5.96343 9.20501 5.96343C8.83742 5.96343 8.48489 6.10946 8.22496 6.36938C7.96504 6.62931 7.81901 6.98184 7.81901 7.34943ZM8.51201 12.9394H9.89801V14.3204H8.51201V12.9394Z" fill="#F16600"/>
</svg>
