<svg width="33" height="40" viewBox="0 0 33 40" fill="none" xmlns="http://www.w3.org/2000/svg">
<g clip-path="url(#clip0_188:198)">
<path d="M30.0804 15.8801C30.0336 14.8174 29.8617 14.0868 29.6155 13.4537C29.3616 12.7818 28.9709 12.1801 28.459 11.68C27.9589 11.1721 27.3533 10.7774 26.6891 10.5274C26.0524 10.2813 25.3256 10.1094 24.2629 10.0626C23.1923 10.0118 22.8524 10 20.1371 10C17.4217 10 17.0818 10.0118 16.0152 10.0586C14.9525 10.1055 14.2219 10.2775 13.589 10.5235C12.9169 10.7774 12.3153 11.1681 11.8151 11.68C11.3072 12.1801 10.9127 12.7857 10.6626 13.4499C10.4164 14.0868 10.2446 14.8134 10.1977 15.8761C10.1469 16.9467 10.1351 17.2866 10.1351 20.002C10.1351 22.7173 10.1469 23.0572 10.1937 24.1239C10.2406 25.1865 10.4126 25.9171 10.6588 26.5502C10.9127 27.2221 11.3072 27.8238 11.8151 28.3239C12.3153 28.8318 12.9209 29.2265 13.5851 29.4765C14.2219 29.7226 14.9485 29.8945 16.0114 29.9413C17.0779 29.9883 17.4179 29.9999 20.1333 29.9999C22.8486 29.9999 23.1885 29.9883 24.2552 29.9413C25.3178 29.8945 26.0484 29.7226 26.6813 29.4765C28.0254 28.9568 29.0881 27.8941 29.6078 26.5502C29.8538 25.9133 30.0258 25.1865 30.0726 24.1239C30.1195 23.0572 30.1312 22.7173 30.1312 20.002C30.1312 17.2866 30.1273 16.9467 30.0804 15.8801ZM28.2794 24.0457C28.2363 25.0225 28.0723 25.5499 27.9355 25.9015C27.5995 26.7728 26.908 27.4643 26.0367 27.8004C25.685 27.9372 25.1538 28.1012 24.1808 28.1441C23.1259 28.1911 22.8096 28.2027 20.141 28.2027C17.4725 28.2027 17.1522 28.1911 16.1011 28.1441C15.1244 28.1012 14.5969 27.9372 14.2453 27.8004C13.8117 27.6402 13.417 27.3862 13.0967 27.0541C12.7646 26.7298 12.5106 26.3391 12.3504 25.9055C12.2136 25.5539 12.0496 25.0225 12.0067 24.0497C11.9597 22.9948 11.9481 22.6783 11.9481 20.0097C11.9481 17.3412 11.9597 17.0209 12.0067 15.9699C12.0496 14.9932 12.2136 14.4657 12.3504 14.1141C12.5106 13.6804 12.7646 13.2859 13.1006 12.9654C13.4248 12.6333 13.8155 12.3793 14.2492 12.2192C14.6009 12.0825 15.1323 11.9184 16.1051 11.8754C17.16 11.8285 17.4765 11.8168 20.1449 11.8168C22.8173 11.8168 23.1337 11.8285 24.1848 11.8754C25.1616 11.9184 25.689 12.0825 26.0406 12.2192C26.4742 12.3793 26.8689 12.6333 27.1892 12.9654C27.5213 13.2897 27.7753 13.6804 27.9355 14.1141C28.0723 14.4657 28.2363 14.997 28.2794 15.9699C28.3262 17.0248 28.338 17.3412 28.338 20.0097C28.338 22.6783 28.3262 22.9908 28.2794 24.0457Z" fill="white"/>
<path d="M20.1371 14.8643C17.3007 14.8643 14.9994 17.1654 14.9994 20.002C14.9994 22.8385 17.3007 25.1397 20.1371 25.1397C22.9737 25.1397 25.2748 22.8385 25.2748 20.002C25.2748 17.1654 22.9737 14.8643 20.1371 14.8643ZM20.1371 23.3347C18.297 23.3347 16.8044 21.8422 16.8044 20.002C16.8044 18.1617 18.297 16.6693 20.1371 16.6693C21.9774 16.6693 23.4698 18.1617 23.4698 20.002C23.4698 21.8422 21.9774 23.3347 20.1371 23.3347V23.3347Z" fill="white"/>
<path d="M26.6775 14.6611C26.6775 15.3235 26.1404 15.8605 25.4779 15.8605C24.8155 15.8605 24.2784 15.3235 24.2784 14.6611C24.2784 13.9986 24.8155 13.4617 25.4779 13.4617C26.1404 13.4617 26.6775 13.9986 26.6775 14.6611V14.6611Z" fill="white"/>
</g>
<defs>
<clipPath id="clip0_188:198">
<rect width="20" height="20" fill="white" transform="translate(10.1 10)"/>
</clipPath>
</defs>
</svg>
