<svg width="40" height="40" viewBox="0 0 40 40" fill="none" xmlns="http://www.w3.org/2000/svg">
<g clip-path="url(#clip0_188:171)">
<path d="M29.995 30V29.9992H30V22.6642C30 19.0758 29.2275 16.3116 25.0325 16.3116C23.0158 16.3116 21.6625 17.4183 21.11 18.4675H21.0517V16.6466H17.0742V29.9992H21.2158V23.3875C21.2158 21.6467 21.5458 19.9633 23.7017 19.9633C25.8258 19.9633 25.8575 21.95 25.8575 23.4992V30H29.995Z" fill="white"/>
<path d="M10.33 16.6475H14.4767V30H10.33V16.6475Z" fill="white"/>
<path d="M12.4017 10C11.0758 10 10 11.0758 10 12.4017C10 13.7275 11.0758 14.8258 12.4017 14.8258C13.7275 14.8258 14.8033 13.7275 14.8033 12.4017C14.8025 11.0758 13.7267 10 12.4017 10V10Z" fill="white"/>
</g>
<defs>
<clipPath id="clip0_188:171">
<rect width="20" height="20" fill="white" transform="translate(10 10)"/>
</clipPath>
</defs>
</svg>
