<svg width="32" height="31" viewBox="0 0 32 24" fill="none" xmlns="http://www.w3.org/2000/svg">
<path d="M2.66667 0H22.6667C23.5867 0 24.3067 0.466673 24.7867 1.17334L32 12L24.7867 22.8133C24.3067 23.52 23.4933 24 22.5733 24H2.66667C1.2 24 0 22.8 0 21.3333V2.66667C0 1.2 1.2 0 2.66667 0ZM2.66667 21.3333H22.5733L28.8 12L22.5867 2.66667H2.66667V21.3333Z" />
<path d="M20 14C18.896 14 18 13.104 18 12C18 10.896 18.896 10 20 10C21.104 10 22 10.896 22 12C22 13.104 21.104 14 20 14Z" />
<path d="M13 14C11.896 14 11 13.104 11 12C11 10.896 11.896 10 13 10C14.104 10 15 10.896 15 12C15 13.104 14.104 14 13 14Z" />
<path d="M7 14C5.896 14 5 13.104 5 12C5 10.896 5.896 10 7 10C8.104 10 9 10.896 9 12C9 13.104 8.104 14 7 14Z" />
</svg>
