<svg width="27" height="27" viewBox="0 0 27 27" fill="none" xmlns="http://www.w3.org/2000/svg">
<path d="M5.5 10C6.32843 10 7 9.32843 7 8.5C7 7.67157 6.32843 7 5.5 7C4.67157 7 4 7.67157 4 8.5C4 9.32843 4.67157 10 5.5 10Z" fill="black"/>
<path d="M5.5 9.5C6.05228 9.5 6.5 9.05228 6.5 8.5C6.5 7.94772 6.05228 7.5 5.5 7.5C4.94772 7.5 4.5 7.94772 4.5 8.5C4.5 9.05228 4.94772 9.5 5.5 9.5Z" stroke="black"/>
<path d="M5.5 15C6.32843 15 7 14.3284 7 13.5C7 12.6716 6.32843 12 5.5 12C4.67157 12 4 12.6716 4 13.5C4 14.3284 4.67157 15 5.5 15Z" fill="black"/>
<path d="M5.5 14.5C6.05228 14.5 6.5 14.0523 6.5 13.5C6.5 12.9477 6.05228 12.5 5.5 12.5C4.94772 12.5 4.5 12.9477 4.5 13.5C4.5 14.0523 4.94772 14.5 5.5 14.5Z" stroke="black"/>
<path d="M5.5 20C6.32843 20 7 19.3284 7 18.5C7 17.6716 6.32843 17 5.5 17C4.67157 17 4 17.6716 4 18.5C4 19.3284 4.67157 20 5.5 20Z" fill="black"/>
<path d="M5.5 19.5C6.05228 19.5 6.5 19.0523 6.5 18.5C6.5 17.9477 6.05228 17.5 5.5 17.5C4.94772 17.5 4.5 17.9477 4.5 18.5C4.5 19.0523 4.94772 19.5 5.5 19.5Z" stroke="black"/>
<path d="M9 9H24" stroke="black"/>
<path d="M9 14H24" stroke="black"/>
<path d="M9 19H24" stroke="black"/>
</svg>
