<svg width="27" height="27" viewBox="0 0 27 27" fill="none" xmlns="http://www.w3.org/2000/svg">
<path d="M8.5 10C9.32843 10 10 9.32843 10 8.5C10 7.67157 9.32843 7 8.5 7C7.67157 7 7 7.67157 7 8.5C7 9.32843 7.67157 10 8.5 10Z" fill="#707070"/>
<path d="M8.5 9.5C9.05228 9.5 9.5 9.05228 9.5 8.5C9.5 7.94772 9.05228 7.5 8.5 7.5C7.94772 7.5 7.5 7.94772 7.5 8.5C7.5 9.05228 7.94772 9.5 8.5 9.5Z" stroke="#707070"/>
<path d="M8.5 15C9.32843 15 10 14.3284 10 13.5C10 12.6716 9.32843 12 8.5 12C7.67157 12 7 12.6716 7 13.5C7 14.3284 7.67157 15 8.5 15Z" fill="#707070"/>
<path d="M8.5 14.5C9.05228 14.5 9.5 14.0523 9.5 13.5C9.5 12.9477 9.05228 12.5 8.5 12.5C7.94772 12.5 7.5 12.9477 7.5 13.5C7.5 14.0523 7.94772 14.5 8.5 14.5Z" stroke="#707070"/>
<path d="M8.5 20C9.32843 20 10 19.3284 10 18.5C10 17.6716 9.32843 17 8.5 17C7.67157 17 7 17.6716 7 18.5C7 19.3284 7.67157 20 8.5 20Z" fill="#707070"/>
<path d="M8.5 19.5C9.05228 19.5 9.5 19.0523 9.5 18.5C9.5 17.9477 9.05228 17.5 8.5 17.5C7.94772 17.5 7.5 17.9477 7.5 18.5C7.5 19.0523 7.94772 19.5 8.5 19.5Z" stroke="#707070"/>
<path d="M13.5 10C14.3284 10 15 9.32843 15 8.5C15 7.67157 14.3284 7 13.5 7C12.6716 7 12 7.67157 12 8.5C12 9.32843 12.6716 10 13.5 10Z" fill="#707070"/>
<path d="M13.5 9.5C14.0523 9.5 14.5 9.05228 14.5 8.5C14.5 7.94772 14.0523 7.5 13.5 7.5C12.9477 7.5 12.5 7.94772 12.5 8.5C12.5 9.05228 12.9477 9.5 13.5 9.5Z" stroke="#707070"/>
<path d="M13.5 15C14.3284 15 15 14.3284 15 13.5C15 12.6716 14.3284 12 13.5 12C12.6716 12 12 12.6716 12 13.5C12 14.3284 12.6716 15 13.5 15Z" fill="#707070"/>
<path d="M13.5 14.5C14.0523 14.5 14.5 14.0523 14.5 13.5C14.5 12.9477 14.0523 12.5 13.5 12.5C12.9477 12.5 12.5 12.9477 12.5 13.5C12.5 14.0523 12.9477 14.5 13.5 14.5Z" stroke="#707070"/>
<path d="M13.5 20C14.3284 20 15 19.3284 15 18.5C15 17.6716 14.3284 17 13.5 17C12.6716 17 12 17.6716 12 18.5C12 19.3284 12.6716 20 13.5 20Z" fill="#707070"/>
<path d="M13.5 19.5C14.0523 19.5 14.5 19.0523 14.5 18.5C14.5 17.9477 14.0523 17.5 13.5 17.5C12.9477 17.5 12.5 17.9477 12.5 18.5C12.5 19.0523 12.9477 19.5 13.5 19.5Z" stroke="#707070"/>
<path d="M18.5 10C19.3284 10 20 9.32843 20 8.5C20 7.67157 19.3284 7 18.5 7C17.6716 7 17 7.67157 17 8.5C17 9.32843 17.6716 10 18.5 10Z" fill="#707070"/>
<path d="M18.5 9.5C19.0523 9.5 19.5 9.05228 19.5 8.5C19.5 7.94772 19.0523 7.5 18.5 7.5C17.9477 7.5 17.5 7.94772 17.5 8.5C17.5 9.05228 17.9477 9.5 18.5 9.5Z" stroke="#707070"/>
<path d="M18.5 15C19.3284 15 20 14.3284 20 13.5C20 12.6716 19.3284 12 18.5 12C17.6716 12 17 12.6716 17 13.5C17 14.3284 17.6716 15 18.5 15Z" fill="#707070"/>
<path d="M18.5 14.5C19.0523 14.5 19.5 14.0523 19.5 13.5C19.5 12.9477 19.0523 12.5 18.5 12.5C17.9477 12.5 17.5 12.9477 17.5 13.5C17.5 14.0523 17.9477 14.5 18.5 14.5Z" stroke="#707070"/>
<path d="M18.5 20C19.3284 20 20 19.3284 20 18.5C20 17.6716 19.3284 17 18.5 17C17.6716 17 17 17.6716 17 18.5C17 19.3284 17.6716 20 18.5 20Z" fill="#707070"/>
<path d="M18.5 19.5C19.0523 19.5 19.5 19.0523 19.5 18.5C19.5 17.9477 19.0523 17.5 18.5 17.5C17.9477 17.5 17.5 17.9477 17.5 18.5C17.5 19.0523 17.9477 19.5 18.5 19.5Z" stroke="#707070"/>
</svg>
