<svg width="31" height="31" viewBox="0 0 31 31" fill="none" xmlns="http://www.w3.org/2000/svg">
<path d="M15.5 0C6.94046 0 0 6.94046 0 15.5C0 24.0595 6.94046 31 15.5 31C24.0595 31 31 24.0595 31 15.5C31 6.94046 24.0595 0 15.5 0ZM15.5 28.37C8.39303 28.37 2.62999 22.607 2.62999 15.5C2.62999 8.39303 8.39303 2.62997 15.5 2.62997C22.607 2.62997 28.37 8.39303 28.37 15.5C28.37 22.607 22.607 28.37 15.5 28.37Z"/>
<path d="M22.7779 15.0249L12.8482 7.11371C12.7692 7.04965 12.6742 7.01072 12.5757 7.00193C12.4773 6.99314 12.3789 7.01451 12.2907 7.0635C12.2037 7.11249 12.1293 7.18782 12.0778 7.28078C12.0263 7.37373 12 7.47927 12 7.5873V23.4123C12 23.8946 12.4968 24.1673 12.8482 23.8872L22.7779 15.9746C22.8466 15.9206 22.9027 15.849 22.9405 15.7673C22.9794 15.6844 23 15.5928 23 15.4998C23 15.4069 22.9794 15.3164 22.9405 15.2335C22.9027 15.1506 22.8466 15.0802 22.7779 15.0249ZM14.1393 19.9566V11.043L19.7297 15.4998L14.1393 19.9566Z"/>
</svg>
