<svg width="14" height="16" viewBox="0 0 14 16" fill="none" xmlns="http://www.w3.org/2000/svg">
<path d="M1.35166 14.567C-0.474278 12.6829 -0.440247 9.64473 1.39497 7.76755L7.94997 1.06252C9.33485 -0.354109 11.5859 -0.354234 12.9709 1.06252C14.3425 2.46545 14.3442 4.72905 12.9709 6.13364L7.25691 11.9728C6.32394 12.927 4.79963 12.9137 3.88247 11.9416C2.99888 11.005 3.02722 9.52055 3.92785 8.5993L8.41982 4.0107C8.613 3.81339 8.92957 3.81002 9.12688 4.00317L9.84128 4.70252C10.0386 4.8957 10.042 5.21227 9.84882 5.40958L5.35732 9.99773C5.20319 10.1554 5.19369 10.4174 5.33707 10.5694C5.47369 10.7142 5.68847 10.7166 5.82732 10.5745L11.5413 4.73542C12.1543 4.10848 12.1543 3.08777 11.541 2.46048C10.9413 1.84714 9.97985 1.84683 9.37994 2.46048L2.82491 9.16548C1.73857 10.2767 1.72182 12.0755 2.78769 13.1753C3.8505 14.2719 5.56847 14.2733 6.63325 13.1842L12.0101 7.68423C12.2032 7.48677 12.5197 7.4832 12.7172 7.67623L13.4321 8.37511C13.6296 8.56814 13.6332 8.8847 13.4401 9.08217L8.06322 14.5821C6.20147 16.4864 3.19 16.4639 1.35166 14.567Z" fill="#707070"/>
</svg>
