<svg width="14" height="20" viewBox="0 0 10 17" fill="none" xmlns="http://www.w3.org/2000/svg">
<path d="M3.4588 8.07565L9.44436 2.08983C9.60917 1.9254 9.69983 1.70557 9.69983 1.47116C9.69983 1.23662 9.60917 1.01692 9.44436 0.852233L8.91987 0.328005C8.75532 0.163062 8.53535 0.0722656 8.30094 0.0722656C8.06654 0.0722656 7.84683 0.163062 7.68215 0.328005L0.555393 7.45464C0.39006 7.61984 0.299524 7.84059 0.300174 8.07526C0.299524 8.31096 0.38993 8.53145 0.555393 8.69679L7.67551 15.8165C7.8402 15.9815 8.0599 16.0723 8.29444 16.0723C8.52884 16.0723 8.74855 15.9815 8.91336 15.8165L9.43772 15.2923C9.77892 14.9511 9.77892 14.3956 9.43772 14.0546L3.4588 8.07565Z" fill="black"/>
</svg>
