<svg width="28" height="31" viewBox="0 0 28 28" fill="none" xmlns="http://www.w3.org/2000/svg">
<path d="M25.0079 21.9997C24.3192 21.3405 23.6505 20.6636 22.9994 19.9668C22.4529 19.4121 22.1238 19.0078 22.1238 19.0078L18.0105 17.0442C19.657 15.1769 20.5666 12.7726 20.5666 10.2824C20.5666 4.61358 15.9538 0 10.2833 0C4.6128 0 0 4.61358 0 10.2824C0 15.9513 4.6128 20.5649 10.2833 20.5649C12.8735 20.5649 15.2346 19.5954 17.0456 18.0101L19.0094 22.1231C19.0094 22.1231 19.4137 22.4521 19.9684 22.9986C20.5373 23.5321 21.2847 24.2537 22.0016 25.0069L23.9971 27.0517L24.8845 28L28 24.8847L27.0516 23.9975C26.4945 23.451 25.7506 22.726 25.0079 21.9997ZM10.2833 17.627C6.23322 17.627 2.93809 14.332 2.93809 10.2824C2.93809 6.23292 6.23322 2.93784 10.2833 2.93784C14.3332 2.93784 17.6285 6.23292 17.6285 10.2824C17.6285 14.332 14.3332 17.627 10.2833 17.627Z"/>
</svg>
