<svg width="15" height="15" viewBox="0 0 15 15" fill="none" xmlns="http://www.w3.org/2000/svg">
<mask id="path-1-inside-1_404_196" fill="white">
<path d="M13.2709 3.72025C13.5488 3.53824 13.6283 3.16365 13.4247 2.90124C12.3944 1.57389 10.9437 0.625918 9.30142 0.219554C7.46376 -0.235143 5.52213 0.0219144 3.8661 0.939148C2.21007 1.85638 0.962169 3.36593 0.37277 5.16492C-0.216628 6.96391 -0.103915 8.91923 0.688296 10.6386C1.48051 12.3579 2.8936 13.7141 4.64406 14.435C6.39451 15.1558 8.35282 15.1881 10.1261 14.5252C11.8993 13.8624 13.3563 12.5535 14.2047 10.8612C14.9629 9.34872 15.1849 7.63003 14.8453 5.98446C14.7782 5.65913 14.4417 5.47622 14.1228 5.5692C13.8039 5.66217 13.6238 5.99583 13.6859 6.32214C13.9435 7.67489 13.7514 9.08115 13.1293 10.3221C12.417 11.7429 11.1937 12.8419 9.70486 13.3984C8.21603 13.955 6.57182 13.9279 5.10213 13.3226C3.63243 12.7174 2.44599 11.5788 1.78084 10.1352C1.11569 8.6916 1.02106 7.04989 1.51592 5.53945C2.01079 4.02901 3.05854 2.76157 4.44895 1.99146C5.83936 1.22134 7.46957 1.00551 9.01249 1.38728C10.3599 1.72069 11.5538 2.48833 12.4147 3.56311C12.6223 3.82237 12.993 3.90225 13.2709 3.72025Z"/>
</mask>
<path d="M13.2709 3.72025C13.5488 3.53824 13.6283 3.16365 13.4247 2.90124C12.3944 1.57389 10.9437 0.625918 9.30142 0.219554C7.46376 -0.235143 5.52213 0.0219144 3.8661 0.939148C2.21007 1.85638 0.962169 3.36593 0.37277 5.16492C-0.216628 6.96391 -0.103915 8.91923 0.688296 10.6386C1.48051 12.3579 2.8936 13.7141 4.64406 14.435C6.39451 15.1558 8.35282 15.1881 10.1261 14.5252C11.8993 13.8624 13.3563 12.5535 14.2047 10.8612C14.9629 9.34872 15.1849 7.63003 14.8453 5.98446C14.7782 5.65913 14.4417 5.47622 14.1228 5.5692C13.8039 5.66217 13.6238 5.99583 13.6859 6.32214C13.9435 7.67489 13.7514 9.08115 13.1293 10.3221C12.417 11.7429 11.1937 12.8419 9.70486 13.3984C8.21603 13.955 6.57182 13.9279 5.10213 13.3226C3.63243 12.7174 2.44599 11.5788 1.78084 10.1352C1.11569 8.6916 1.02106 7.04989 1.51592 5.53945C2.01079 4.02901 3.05854 2.76157 4.44895 1.99146C5.83936 1.22134 7.46957 1.00551 9.01249 1.38728C10.3599 1.72069 11.5538 2.48833 12.4147 3.56311C12.6223 3.82237 12.993 3.90225 13.2709 3.72025Z" stroke="white" stroke-width="2" mask="url(#path-1-inside-1_404_196)"/>
<line x1="6.5" y1="3.5" x2="6.5" y2="8.5" stroke="white" stroke-linecap="round" stroke-linejoin="round"/>
<path d="M10.5719 8.52734L6.48044 8.50674" stroke="white" stroke-linecap="round" stroke-linejoin="round"/>
</svg>
