<svg width="159" height="96" viewBox="0 0 159 96" fill="none" xmlns="http://www.w3.org/2000/svg">
<g filter="url(#filter0_d)">
<path opacity="0.1" d="M157.318 81.0791C156.701 82.5992 155.943 84.0576 155.052 85.435C154.634 86.0918 154.176 86.722 153.68 87.3219C153.675 87.3279 153.67 87.3334 153.665 87.3382H0.236389L0.256945 87.3219C0.394785 87.2143 1.2055 86.5585 2.46602 85.435C3.37286 84.6305 4.50521 83.5843 5.77963 82.3253C16.2011 72.0772 36.2236 47.821 19.5473 25.5998C4.04816 4.94336 20.7365 1.1961 31.745 0.756708C35.9746 0.591155 40.194 1.28084 44.1506 2.78446C52.6887 5.95485 61.587 8.05502 70.642 9.03693C71.0398 9.08105 71.44 9.12517 71.8456 9.16506C78.2573 9.81771 84.7122 9.93497 91.1433 9.51561C91.3325 9.50473 91.5229 9.49083 91.7146 9.47693C98.0765 9.03028 104.39 8.05382 110.59 6.5577C110.991 6.45978 111.388 6.36731 111.782 6.27484C132.44 1.4983 151.483 17.7813 146.722 36.1846C144.961 42.9919 145.409 50.247 151.278 56.1169C160.884 65.6984 159.722 75.1342 157.318 81.0791Z" fill="#3B0E8A"/>
<path d="M157.318 81.0785C156.701 82.5986 155.943 84.057 155.052 85.4344C154.634 86.0912 154.176 86.7214 153.68 87.3213H0.256958C0.394798 87.2137 1.20552 86.5579 2.46603 85.4344C3.37287 84.6299 4.50522 83.5837 5.77964 82.3248L21.9499 78.9849C22.1587 78.9418 22.3714 78.9202 22.5847 78.9202L39.8238 78.8954H39.8419L48.3808 78.8845H48.4001L55.6065 78.8761H65.1586L84.9586 78.8483H93.4757L96.8758 78.8096H97.9996L107.89 78.7957H112.567L123.993 78.7806H127.392L138.213 78.7655L147.347 78.7546C147.601 78.7546 147.855 78.7847 148.102 78.844L157.318 81.0785Z" fill="#454B69"/>
<path opacity="0.4" d="M2.46603 85.4344H155.052C154.634 86.0912 154.176 86.7214 153.68 87.3213H0.256958C0.39238 87.2064 1.20249 86.5513 2.46603 85.4344Z" fill="black"/>
<path d="M101.462 42.5108L101.155 42.5712L87.3001 45.2306C83.2755 46.0036 79.1935 46.7802 75.1055 46.4835C72.1431 46.2683 69.3778 45.3901 66.5321 44.6201C64.924 44.1837 63.2185 44.0103 62.6732 42.2104C61.9205 39.7263 63.1454 36.0456 63.4338 33.5307C63.8002 31.0612 63.7825 28.5498 63.3812 26.0857C63.2721 25.537 63.1283 24.9958 62.9507 24.4653C62.458 23.0039 61.6811 21.4845 62.1043 20.0007C62.4344 18.8233 63.4404 17.9826 64.3823 17.2047C66.2268 15.6865 68.1101 13.9845 68.8416 11.709C69.2007 10.6047 69.2684 9.4165 69.6547 8.32073C70.0698 7.29404 70.6958 6.36589 71.4923 5.5963C72.2887 4.82671 73.2379 4.23282 74.2784 3.85304C76.3655 3.10714 78.576 2.76741 80.7908 2.85216C82.7417 2.8522 84.6904 2.98163 86.6242 3.23957C88.7496 3.43746 90.8174 4.04064 92.7158 5.0165C93.6626 5.50855 94.4949 6.19487 95.1582 7.03057C95.8215 7.86627 96.3009 8.83253 96.565 9.86617C97.1768 12.8211 95.4768 15.9706 96.3897 18.8372C96.848 20.2878 97.9084 21.4597 98.6441 22.7875C99.2439 23.8979 99.6141 25.1176 99.7327 26.374C99.8513 27.6304 99.7159 28.8977 99.3345 30.1007C98.4537 32.8296 96.2972 35.5898 97.3999 38.2353C98.1024 39.9179 99.8974 40.8161 101.148 42.1494C101.261 42.2706 101.365 42.3911 101.462 42.5108Z" fill="#454B69"/>
<path opacity="0.1" d="M101.155 42.1633V42.5706L87.2995 45.23C83.2749 46.003 79.1929 46.7796 75.1048 46.4829C72.1425 46.2677 69.3772 45.3895 66.5315 44.6195C64.9234 44.1832 63.2179 44.0097 62.6726 42.2098C61.9199 39.7257 63.1448 36.045 63.4332 33.5301C63.7094 31.0593 67.9601 22.0399 67.4686 19.5988L92.8711 20.703C93.0422 22.0514 99.7559 28.82 99.34 30.1128C98.4591 32.8417 96.3026 35.6019 97.4054 38.2474C98.1097 39.9324 99.9022 40.83 101.155 42.1633Z" fill="black"/>
<path d="M75.2034 35.3342C75.4326 36.1785 75.3599 37.0762 74.9978 37.8726C74.4169 38.8717 73.1491 39.1908 72.0161 39.4169L68.0816 40.2026C67.8085 40.2324 67.5485 40.3354 67.329 40.5006C67.1114 40.7351 66.9867 41.0409 66.9783 41.3606C66.8193 42.7852 67.3235 44.1886 67.783 45.5455C68.7122 48.2936 69.4921 51.0992 70.6667 53.7507C71.7603 56.4547 73.5089 58.8446 75.7554 60.7055C78.0569 62.4776 81.1021 63.4217 83.92 62.729C86.3745 62.1246 88.3877 60.3936 90.1228 58.5587C91.6235 57.1039 92.8038 55.3518 93.5882 53.4147C94.0147 52.0435 94.2785 50.627 94.3741 49.1942L95.0724 42.6298C95.1812 41.6024 95.2537 40.448 94.5887 39.6598C94.2775 39.3284 93.9054 39.06 93.4926 38.8693C91.9456 38.1454 90.441 37.334 88.9862 36.439C87.5224 35.5319 86.4307 34.1321 85.9078 32.4917C85.6527 31.5005 85.698 30.4217 85.2633 29.4981C84.9961 28.991 84.6239 28.5464 84.1717 28.194C83.7194 27.8416 83.1973 27.5893 82.6401 27.4541C81.5237 27.1902 80.3669 27.1434 79.2328 27.3163C78.095 27.4444 73.7107 27.7732 73.2398 29.0551C72.9871 29.7453 74.0348 31.2261 74.2832 31.9054C74.6915 33.0187 74.9995 34.1661 75.2034 35.3342Z" fill="#EFB7B9"/>
<path opacity="0.1" d="M75.2034 35.3342C75.4326 36.1785 75.3599 37.0762 74.9978 37.8726C74.4169 38.8717 73.1491 39.1908 72.0161 39.4169L68.0816 40.2026C67.8085 40.2324 67.5485 40.3354 67.329 40.5006C67.1114 40.7351 66.9867 41.0409 66.9783 41.3606C66.8193 42.7852 67.3235 44.1886 67.783 45.5455C68.7122 48.2936 69.4921 51.0992 70.6667 53.7507C71.7603 56.4547 73.5089 58.8446 75.7554 60.7055C78.0569 62.4776 81.1021 63.4217 83.92 62.729C86.3745 62.1246 88.3877 60.3936 90.1228 58.5587C91.6235 57.1039 92.8038 55.3518 93.5882 53.4147C94.0147 52.0435 94.2785 50.627 94.3741 49.1942L95.0724 42.6298C95.1812 41.6024 95.2537 40.448 94.5887 39.6598C94.2775 39.3284 93.9054 39.06 93.4926 38.8693C91.9456 38.1454 90.441 37.334 88.9862 36.439C87.5224 35.5319 86.4307 34.1321 85.9078 32.4917C85.6527 31.5005 85.698 30.4217 85.2633 29.4981C84.9961 28.991 84.6239 28.5464 84.1717 28.194C83.7194 27.8416 83.1973 27.5893 82.6401 27.4541C81.5237 27.1902 80.3669 27.1434 79.2328 27.3163C78.095 27.4444 73.7107 27.7732 73.2398 29.0551C72.9871 29.7453 74.0348 31.2261 74.2832 31.9054C74.6915 33.0187 74.9995 34.1661 75.2034 35.3342Z" fill="black"/>
<path d="M84.6702 50.3419L86.9773 45.459C88.0582 43.1708 89.1627 40.7665 89.0479 38.2395C89.0255 37.7373 89.0201 37.1093 89.462 36.8814C89.6533 36.8034 89.8617 36.7767 90.0666 36.8041C92.4953 36.9281 94.892 37.4127 97.178 38.2419C97.6332 38.3697 98.049 38.6097 98.3872 38.94C98.6709 39.317 98.8577 39.7578 98.9313 40.2238C99.2933 41.7636 99.5574 43.3249 99.722 44.8982C100.033 48.8024 100.033 52.7252 99.722 56.6295L99.109 68.5584C99.1123 68.7277 99.0778 68.8955 99.0081 69.0498C98.9139 69.1752 98.7932 69.2782 98.6544 69.3514C98.5157 69.4245 98.3625 69.466 98.2058 69.4729C97.0134 69.6358 95.8073 69.6747 94.6068 69.5889C86.1581 69.2686 77.6646 68.7772 69.2708 69.8017C69.3087 68.5602 69.2886 67.318 69.2104 66.075C68.8779 60.7073 67.4861 55.4708 66.1192 50.2706C65.3224 47.2341 64.551 43.9245 65.8333 41.0608C66.0218 40.609 66.2929 40.1963 66.6325 39.8436C67.2111 39.3387 67.9083 38.9887 68.659 38.8264C69.9306 38.4805 71.2477 38.3315 72.5645 38.3846L81.2702 57.33C81.668 58.1967 81.9957 59.1093 82.391 59.9645C82.7471 58.4862 82.3191 56.754 82.7471 55.1517C83.2497 53.4965 83.8931 51.8874 84.6702 50.3419Z" fill="white"/>
<path d="M83.7604 63.3781C84.5416 63.3894 85.316 63.2319 86.0308 62.9166C86.7456 62.6013 87.3839 62.1355 87.9022 61.551C88.9323 60.3734 89.7376 59.0168 90.2782 57.5487C91.1375 55.4888 91.8204 53.3598 92.3198 51.1845C92.8085 49.3475 92.952 47.4359 92.743 45.5467C92.3482 42.9586 90.8833 40.6069 90.6336 38.0014C90.5826 37.7784 90.5879 37.5462 90.6491 37.3257C90.7103 37.1053 90.8255 36.9036 90.9843 36.7388C91.2269 36.5918 91.5072 36.519 91.7908 36.5291C94.3946 36.3743 97.2548 36.4034 99.2722 38.0558C99.8865 38.558 100.385 39.186 100.986 39.704C102.416 40.946 104.437 41.5776 105.355 43.2276C105.636 43.8221 105.869 44.4384 106.052 45.0704C106.646 46.5102 107.436 47.8612 108.399 49.0854C107.519 52.7952 106.509 56.508 105.629 60.2177C105.164 62.406 104.548 64.5595 103.786 66.663C103.256 68.0296 102.589 69.4233 102.752 70.8865C102.842 71.4584 102.984 72.0209 103.175 72.5674C103.761 74.5147 104.035 76.5422 103.988 78.5751L64.5957 78.6717C66.4832 75.9665 67.0363 72.649 66.8447 69.3568C66.7895 67.7706 66.3641 66.2194 65.6023 64.8269C64.3515 62.6873 62.1509 61.2936 59.9799 60.0999C58.4612 59.2719 56.8307 63.9311 55.1893 63.3969C55.4692 59.7387 55.5614 56.0687 55.4656 52.4011C55.3847 51.7856 55.4184 51.1604 55.5648 50.5571C55.6947 50.1528 55.9335 49.7913 56.095 49.3979C56.7425 47.8228 56.1252 45.8096 57.1717 44.469C57.8972 43.5376 59.1667 43.2723 60.1945 42.6981C61.2026 42.0233 62.1405 41.2493 62.9942 40.3875C64.8039 38.8516 67.015 37.8648 69.3669 37.5432C70.0531 38.6251 70.4702 39.8555 70.5833 41.1315C70.6534 41.9336 70.6027 42.7465 70.7145 43.5443C70.9182 44.6189 71.2693 45.6602 71.758 46.6388C73.5198 50.8437 75.5359 54.9376 77.7951 58.8977C78.4175 60.0311 79.2057 61.0651 80.1336 61.9657C81.1219 62.8755 82.4168 63.3798 83.7604 63.3781Z" fill="#3B0E8A"/>
<path opacity="0.1" d="M83.7604 63.3781C84.5416 63.3894 85.316 63.2319 86.0308 62.9166C86.7456 62.6013 87.3839 62.1355 87.9022 61.551C88.9323 60.3734 89.7376 59.0168 90.2782 57.5487C91.1375 55.4888 91.8204 53.3598 92.3198 51.1845C92.8085 49.3475 92.952 47.4359 92.743 45.5467C92.3482 42.9586 90.8833 40.6069 90.6336 38.0014C90.5826 37.7784 90.5879 37.5462 90.6491 37.3257C90.7103 37.1053 90.8255 36.9036 90.9843 36.7388C91.2269 36.5918 91.5072 36.519 91.7908 36.5291C94.3946 36.3743 97.2548 36.4034 99.2722 38.0558C99.8865 38.558 100.385 39.186 100.986 39.704C102.416 40.946 104.437 41.5776 105.355 43.2276C105.636 43.8221 105.869 44.4384 106.052 45.0704C106.646 46.5102 107.436 47.8612 108.399 49.0854C107.519 52.7952 106.509 56.508 105.629 60.2177C105.164 62.406 104.548 64.5595 103.786 66.663C103.256 68.0296 102.589 69.4233 102.752 70.8865C102.842 71.4584 102.984 72.0209 103.175 72.5674C103.761 74.5147 104.035 76.5422 103.988 78.5751L64.5957 78.6717C66.4832 75.9665 67.0363 72.649 66.8447 69.3568C66.7895 67.7706 66.3641 66.2194 65.6023 64.8269C64.3515 62.6873 62.1509 61.2936 59.9799 60.0999C58.4612 59.2719 56.8307 63.9311 55.1893 63.3969C55.4692 59.7387 55.5614 56.0687 55.4656 52.4011C55.3847 51.7856 55.4184 51.1604 55.5648 50.5571C55.6947 50.1528 55.9335 49.7913 56.095 49.3979C56.7425 47.8228 56.1252 45.8096 57.1717 44.469C57.8972 43.5376 59.1667 43.2723 60.1945 42.6981C61.2026 42.0233 62.1405 41.2493 62.9942 40.3875C64.8039 38.8516 67.015 37.8648 69.3669 37.5432C70.0531 38.6251 70.4702 39.8555 70.5833 41.1315C70.6534 41.9336 70.6027 42.7465 70.7145 43.5443C70.9182 44.6189 71.2693 45.6602 71.758 46.6388C73.5198 50.8437 75.5359 54.9376 77.7951 58.8977C78.4175 60.0311 79.2057 61.0651 80.1336 61.9657C81.1219 62.8755 82.4168 63.3798 83.7604 63.3781Z" fill="black"/>
<path d="M81.677 35.0211C88.2129 35.0211 93.5113 29.7242 93.5113 23.1901C93.5113 16.6559 88.2129 11.359 81.677 11.359C75.1411 11.359 69.8427 16.6559 69.8427 23.1901C69.8427 29.7242 75.1411 35.0211 81.677 35.0211Z" fill="#EFB7B9"/>
<path d="M75.4669 38.9557C75.7916 35.8945 74.5184 32.8997 73.0771 30.1793C72.3196 28.9169 71.7227 27.5649 71.3003 26.1546C71.0934 25.447 71.0433 24.7028 71.1537 23.9738C71.2641 23.2449 71.5322 22.5488 71.9393 21.9341C72.6932 20.9351 73.8884 20.3953 74.9948 19.8085C78.1161 18.1524 80.9697 15.7179 82.342 12.462C81.5664 12.8851 81.7677 14.1447 82.4527 14.6983C83.1376 15.2519 84.0705 15.3631 84.9126 15.6273C87.9832 16.5943 89.8247 19.6543 91.3016 22.5143C91.5797 22.9634 91.7456 23.4727 91.7853 23.9993C91.7464 24.5136 91.5761 25.0094 91.2908 25.439C90.5617 26.7367 89.6699 27.9829 89.3386 29.4335C88.959 31.0895 89.3592 32.8314 89.8827 34.456C90.4347 36.184 91.168 37.9258 92.4932 39.1654C93.8184 40.4051 95.8739 41.0203 97.5045 40.2201C95.877 37.4224 94.1908 34.297 94.8262 31.1246C95.1328 29.6063 95.9568 28.2235 96.3074 26.7161C96.9755 23.8356 95.8631 20.8722 94.7706 18.1234L91.506 9.91814C91.0078 8.66342 90.4401 7.32468 89.2969 6.61391C88.4901 6.18826 87.5965 5.95279 86.6846 5.9255C83.7688 5.66622 80.7484 5.75144 78.0339 6.83633C73.0886 8.81149 69.9878 13.6805 67.5278 18.4039C66.7909 19.8187 66.063 21.3213 66.0932 22.9169C66.1557 23.7904 66.3097 24.655 66.5527 25.4964C67.3616 28.9687 67.4057 32.5679 67.4474 36.1338C67.4795 38.8693 67.3368 41.4476 66.1397 43.939C67.7799 44.2647 70.1583 45.1441 71.7821 44.5004C73.8975 43.6621 75.1979 41.0856 75.4669 38.9557Z" fill="#454B69"/>
<g opacity="0.1">
<path opacity="0.1" d="M67.4389 36.074C67.4446 35.6847 67.4446 35.2919 67.4389 34.8954C67.3972 31.3295 67.3531 27.7321 66.5442 24.258C66.3632 23.5819 66.2219 22.8957 66.121 22.2031C66.0925 22.4407 66.08 22.68 66.0835 22.9193C66.146 23.7929 66.3 24.6574 66.543 25.4989C67.3495 28.9536 67.399 32.5292 67.4389 36.074Z" fill="black"/>
<path opacity="0.1" d="M96.3068 26.7179C96.4887 25.9117 96.5498 25.0829 96.4882 24.2586C96.4604 24.6686 96.3998 25.0757 96.3068 25.4759C95.9562 26.9941 95.1321 28.3619 94.8256 29.8844C94.6935 30.5558 94.6562 31.2424 94.715 31.9242C94.737 31.6564 94.774 31.3901 94.8256 31.1264C95.1315 29.6039 95.9562 28.2301 96.3068 26.7179Z" fill="black"/>
<path opacity="0.1" d="M91.6789 23.3678C91.7463 23.1717 91.7826 22.9664 91.7865 22.7591C91.7455 22.2328 91.5798 21.7237 91.3029 21.2741C89.8259 18.4141 87.9893 15.3559 84.9138 14.387C84.0717 14.1223 83.1401 14.0141 82.4539 13.4581C82.2774 13.3059 82.133 13.1201 82.0292 12.9115C81.9254 12.7029 81.8643 12.4758 81.8493 12.2433C80.353 14.9896 77.7824 17.0905 74.996 18.5658C73.8915 19.1527 72.6944 19.6918 71.9405 20.6915C71.2655 21.6661 70.9831 22.8595 71.1498 24.0332C71.2196 23.276 71.4926 22.5516 71.9399 21.9366C72.6938 20.9375 73.889 20.3978 74.9954 19.8109C77.7812 18.3356 80.3518 16.2347 81.8487 13.4883C81.8637 13.7208 81.9248 13.948 82.0286 14.1566C82.1324 14.3652 82.2768 14.551 82.4533 14.7031C83.1437 15.255 84.0711 15.368 84.9132 15.6321C87.9838 16.5991 89.8253 19.6592 91.3023 22.5192C91.4519 22.7918 91.5779 23.0767 91.6789 23.3708V23.3678Z" fill="black"/>
<path opacity="0.1" d="M92.492 37.9252C91.1668 36.6832 90.4365 34.9437 89.8815 33.2158C89.5477 32.2451 89.3246 31.2399 89.2165 30.2192C89.1554 31.6621 89.3814 33.1028 89.8815 34.4578C90.4335 36.1858 91.1668 37.9276 92.492 39.1673C93.8172 40.4069 95.8727 41.0221 97.5032 40.2219C97.3073 39.8865 97.1127 39.5456 96.9192 39.2017C96.1333 39.3739 95.3169 39.3473 94.5438 39.1244C93.7707 38.9015 93.0655 38.4893 92.492 37.9252Z" fill="black"/>
<path opacity="0.1" d="M75.4676 37.7137C75.201 39.8436 73.8957 42.4201 71.7761 43.262C70.3028 43.8459 68.2062 43.175 66.6059 42.8039C66.4682 43.1913 66.3106 43.5714 66.1337 43.9426C67.7739 44.2684 70.1523 45.1477 71.7761 44.5041C73.8981 43.6621 75.2016 41.0856 75.4676 38.9557C75.5225 38.4228 75.5326 37.8862 75.4978 37.3517C75.4893 37.4719 75.4773 37.5934 75.4676 37.7137Z" fill="black"/>
</g>
<path d="M92.1958 71.9333C90.0629 71.5955 87.898 70.9421 85.7832 71.3815C84.561 71.6721 83.4141 72.2178 82.4176 72.9826C82.9605 73.2594 83.4305 73.6604 83.7893 74.1529C84.1481 74.6455 84.3857 75.2156 84.4828 75.8172C84.7378 76.6413 84.9 77.4913 84.9664 78.3514C85.0321 79.219 84.8024 80.0834 84.3147 80.8041C87.0038 81.0688 89.6107 80.4064 92.2345 79.7591C92.5344 79.7065 92.8199 79.5914 93.0724 79.4212C93.2623 79.2365 93.409 79.0122 93.5021 78.7643C93.5952 78.5164 93.6324 78.2509 93.6111 77.987C93.5672 77.0427 93.3872 76.1098 93.0766 75.217C92.7544 74.1309 92.5174 73.0128 92.1958 71.9333Z" fill="white"/>
<path d="M106.597 48.6538C107.656 48.7916 108.477 49.6463 109.082 50.5238C110.779 52.9668 111.51 55.9284 112.325 58.7896C113.338 62.3493 114.53 65.8556 115.897 69.2952C116.191 70.0911 116.549 70.8619 116.968 71.6003C117.359 72.1385 117.665 72.734 117.875 73.3658C118.237 74.9312 116.948 76.4023 115.602 77.2744C114.885 77.7578 114.101 78.1353 113.276 78.395C112.466 78.6105 111.638 78.7521 110.802 78.818L103.138 79.646C99.6108 80.0298 96.0517 80.4136 92.5235 80.0437C92.301 79.2707 92.7375 78.7243 92.7049 77.9199C92.6386 77.3469 92.4683 76.7909 92.2025 76.279C91.785 75.335 91.5092 74.3346 91.3839 73.3102C91.3708 72.9314 91.3043 72.5564 91.1862 72.1963C91.1241 72.0168 91.0141 71.8576 90.8681 71.736C90.7222 71.6144 90.5458 71.5349 90.358 71.506C92.4286 71.3005 94.0011 70.9095 96.0723 70.7028C96.8476 70.6833 97.6083 70.4874 98.2965 70.1298C99.0675 69.5497 99.6381 68.7434 99.9288 67.8235C100.825 65.6289 101.402 63.2107 100.931 60.8868C100.545 58.9806 99.4663 57.206 99.4718 55.2611C99.5252 54.1003 99.8186 52.9631 100.333 51.9212C100.828 50.8007 101.472 49.6547 102.557 49.0866C103.643 48.5185 105.373 48.4882 106.597 48.6538Z" fill="#3B0E8A"/>
<path opacity="0.08" d="M106.597 48.6538C107.656 48.7916 108.477 49.6463 109.082 50.5238C110.779 52.9668 111.51 55.9284 112.325 58.7896C113.338 62.3493 114.53 65.8556 115.897 69.2952C116.191 70.0911 116.549 70.8619 116.968 71.6003C117.359 72.1385 117.665 72.734 117.875 73.3658C118.237 74.9312 116.948 76.4023 115.602 77.2744C114.885 77.7578 114.101 78.1353 113.276 78.395C112.466 78.6105 111.638 78.7521 110.802 78.818L103.138 79.646C99.6108 80.0298 96.0517 80.4136 92.5235 80.0437C92.301 79.2707 92.7375 78.7243 92.7049 77.9199C92.6386 77.3469 92.4683 76.7909 92.2025 76.279C91.785 75.335 91.5092 74.3346 91.3839 73.3102C91.3708 72.9314 91.3043 72.5564 91.1862 72.1963C91.1241 72.0168 91.0141 71.8576 90.8681 71.736C90.7222 71.6144 90.5458 71.5349 90.358 71.506C92.4286 71.3005 94.0011 70.9095 96.0723 70.7028C96.8476 70.6833 97.6083 70.4874 98.2965 70.1298C99.0675 69.5497 99.6381 68.7434 99.9288 67.8235C100.825 65.6289 101.402 63.2107 100.931 60.8868C100.545 58.9806 99.4663 57.206 99.4718 55.2611C99.5252 54.1003 99.8186 52.9631 100.333 51.9212C100.828 50.8007 101.472 49.6547 102.557 49.0866C103.643 48.5185 105.373 48.4882 106.597 48.6538Z" fill="black"/>
<path d="M58.6075 46.8582C59.185 45.6996 59.5328 44.4403 59.6316 43.1496C59.6468 41.7541 59.0797 40.4298 58.6462 39.1044C58.11 37.4833 57.753 35.8084 57.5816 34.1097C57.546 33.947 57.5705 33.777 57.6505 33.631C57.7924 33.49 57.9809 33.4056 58.1807 33.3935C59.1193 33.0836 59.9225 32.4599 60.4551 31.6274C61.3803 30.4273 62.1615 29.1227 62.7826 27.7406C63.2397 26.7234 63.8581 25.4825 64.9736 25.4729C64.5244 27.5817 63.9677 29.6661 63.3056 31.7181C64.4724 31.4201 65.5805 30.9868 66.7473 30.6906C66.9757 30.6186 67.2148 30.5869 67.4541 30.5969C67.6225 30.6287 67.7808 30.7006 67.9156 30.8065C68.0504 30.9123 68.1577 31.0491 68.2284 31.2053C68.2991 31.3614 68.3311 31.5322 68.3218 31.7033C68.3124 31.8745 68.262 32.0408 68.1747 32.1883C68.7448 32.8562 69.6934 33.0345 70.4388 33.4938C71.1842 33.9531 71.7199 35.0864 71.0573 35.6618C70.913 35.7546 70.7824 35.8671 70.6691 35.996C70.3487 36.4904 71.1328 37.0573 71.0682 37.6424C71.0156 38.1211 70.4031 38.3447 69.9358 38.2178C69.4892 38.0345 69.0709 37.7886 68.6934 37.4876C68.5034 37.3393 68.2757 37.2467 68.036 37.2204C67.7963 37.194 67.554 37.2349 67.3362 37.3384C67.306 38.6446 67.0397 39.9346 66.5503 41.1461C66.3447 41.5782 66.0811 41.9825 65.9155 42.431C65.7568 42.9209 65.6586 43.4283 65.6229 43.942L65.1217 48.5227C62.7312 48.9977 60.5875 48.2815 58.6075 46.8582Z" fill="#EFB7B9"/>
<path d="M58.0235 50.9687L57.5834 47.989C57.396 47.0513 57.5853 46.0775 58.1106 45.2783C60.5519 46.3568 63.2012 46.8836 65.8695 46.8213C66.0457 46.8447 66.2248 46.829 66.3942 46.7753C66.5636 46.7216 66.719 46.6312 66.8495 46.5107C67.0546 46.8041 67.1867 47.1423 67.2348 47.4971C67.2828 47.8519 67.2455 48.213 67.1258 48.5505C66.9311 49.2183 66.5569 49.8197 66.3084 50.4719C66.215 50.8139 66.0561 51.1345 65.8405 51.4159C65.6311 51.5936 65.3877 51.7267 65.1251 51.8071C64.8626 51.8876 64.5864 51.9136 64.3134 51.8837C63.7353 51.88 63.1587 51.825 62.5904 51.7193C61.1195 51.4449 59.495 50.7039 58.0235 50.9687Z" fill="white"/>
<path d="M67.1125 50.846C65.221 50.6308 63.3421 50.3272 61.4756 49.9352C60.5702 49.699 59.6393 49.5752 58.7036 49.5665C58.1025 49.6808 57.4814 49.6273 56.9087 49.4118C57.4575 51.1651 57.433 53.0477 56.8386 54.7861C56.4698 55.8214 55.9081 56.786 55.6373 57.8515C55.0739 60.0806 55.8471 62.5108 55.1428 64.6999C55.069 64.9859 54.9233 65.2482 54.7196 65.4621C54.5044 65.6597 54.2099 65.7643 54.0116 65.9752C53.7607 66.3285 53.6496 66.7621 53.6997 67.1925L53.687 70.9947C53.6785 73.4153 53.7106 75.9828 54.9886 78.0335C55.7446 79.1963 56.8436 80.0951 58.1335 80.6055C59.4233 81.1159 60.8399 81.2125 62.1871 80.882C62.8975 80.7004 63.563 80.3748 64.1423 79.9253C65.0197 79.1239 65.7321 78.159 66.2395 77.0846C66.9974 75.8846 67.5398 74.5614 67.8422 73.1748C67.9628 72.1791 67.9479 71.1717 67.7981 70.18C67.1742 64.6595 65.82 59.1855 66.1108 53.6444C66.1544 52.6314 66.5043 51.6554 67.1143 50.8454L67.1125 50.846Z" fill="#3B0E8A"/>
<path d="M75.0172 73.7574C74.0585 73.8402 73.0945 73.8402 72.1358 73.7574C71.4454 73.6746 70.7719 73.5048 70.087 73.3887C68.2169 73.0868 66.3036 73.1929 64.4784 73.6998C62.6533 74.2067 60.9594 75.1024 59.5131 76.3255C58.9829 76.7782 58.4473 77.4738 58.7399 78.106C59.0549 78.7878 60.0167 78.7709 60.7585 78.6415C59.9584 79.0237 59.2516 79.5764 58.6879 80.2607C58.5717 80.3756 58.4798 80.5126 58.4175 80.6637C58.3551 80.8147 58.3238 80.9767 58.3252 81.1401C58.4092 81.8231 59.3372 81.9476 60.0234 81.8884C59.9781 81.9552 59.9475 82.0309 59.9335 82.1104C59.9196 82.19 59.9228 82.2715 59.9427 82.3498C59.9626 82.428 59.9989 82.5012 60.0492 82.5644C60.0995 82.6275 60.1626 82.6794 60.2344 82.7164C60.5362 82.8509 60.8756 82.8757 61.1938 82.7865C61.9051 82.6563 62.5923 82.4185 63.2318 82.0812C63.1846 82.2562 63.2002 82.4423 63.2758 82.6071C63.3515 82.7719 63.4824 82.9051 63.6459 82.9835C63.9812 83.1293 64.3544 83.1637 64.7106 83.0814C66.3979 82.8052 67.8059 81.6309 69.4516 81.1715C72.0826 80.436 74.8358 81.6091 77.5708 81.6919C78.4293 81.7465 79.289 81.6049 80.0846 81.2779C81.0416 80.8434 81.8131 80.0274 82.8239 79.7379C83.9466 79.4176 85.2343 79.7863 86.2614 79.2326C87.0081 78.8307 86.3346 75.735 86.1441 75.1391C85.7947 74.0512 85.4441 73.3259 84.2803 73.2153C81.3348 72.9264 77.9844 73.5858 75.0172 73.7574Z" fill="#EFB7B9"/>
<path d="M82.3632 72.9125C82.3632 72.9125 86.8213 76.6845 84.2489 80.8004L89.219 79.0852V75.4842C89.219 75.3131 87.3315 72.742 87.3315 72.742L85.1019 72.3981L82.3632 72.9125Z" fill="white"/>
<path d="M35.6874 72.6792H37.359C37.8122 72.6792 38.261 72.7684 38.6798 72.9419C39.0985 73.1153 39.479 73.3694 39.7995 73.6898C40.12 74.0102 40.3742 74.3906 40.5477 74.8092C40.7212 75.2279 40.8104 75.6766 40.8104 76.1297V81.2507H32.2365V76.1291C32.2367 75.2142 32.6003 74.3368 33.2474 73.6898C33.8945 73.0429 34.7722 72.6794 35.6874 72.6792Z" fill="#3F3D56"/>
<path opacity="0.1" d="M35.6874 72.6792H37.359C37.8122 72.6792 38.261 72.7684 38.6798 72.9419C39.0985 73.1153 39.479 73.3694 39.7995 73.6898C40.12 74.0102 40.3742 74.3906 40.5477 74.8092C40.7212 75.2279 40.8104 75.6766 40.8104 76.1297V81.2507H32.2365V76.1291C32.2367 75.2142 32.6003 74.3368 33.2474 73.6898C33.8945 73.0429 34.7722 72.6794 35.6874 72.6792Z" fill="black"/>
<path d="M36.1807 74.5643C36.5596 74.5643 36.8669 74.2572 36.8669 73.8783C36.8669 73.4994 36.5596 73.1923 36.1807 73.1923C35.8017 73.1923 35.4945 73.4994 35.4945 73.8783C35.4945 74.2572 35.8017 74.5643 36.1807 74.5643Z" fill="#3F3D56"/>
<path d="M36.1807 73.7073C36.5596 73.7073 36.8669 73.4001 36.8669 73.0213C36.8669 72.6424 36.5596 72.3353 36.1807 72.3353C35.8017 72.3353 35.4945 72.6424 35.4945 73.0213C35.4945 73.4001 35.8017 73.7073 36.1807 73.7073Z" fill="#3F3D56"/>
<path d="M36.1807 72.8502C36.5596 72.8502 36.8669 72.5431 36.8669 72.1643C36.8669 71.7854 36.5596 71.4783 36.1807 71.4783C35.8017 71.4783 35.4945 71.7854 35.4945 72.1643C35.4945 72.5431 35.8017 72.8502 36.1807 72.8502Z" fill="#3F3D56"/>
<path d="M36.1807 71.9932C36.5596 71.9932 36.8669 71.6861 36.8669 71.3072C36.8669 70.9283 36.5596 70.6212 36.1807 70.6212C35.8017 70.6212 35.4945 70.9283 35.4945 71.3072C35.4945 71.6861 35.8017 71.9932 36.1807 71.9932Z" fill="#3F3D56"/>
<path d="M36.1807 71.1362C36.5596 71.1362 36.8669 70.829 36.8669 70.4502C36.8669 70.0713 36.5596 69.7642 36.1807 69.7642C35.8017 69.7642 35.4945 70.0713 35.4945 70.4502C35.4945 70.829 35.8017 71.1362 36.1807 71.1362Z" fill="#3F3D56"/>
<path d="M36.1807 70.2791C36.5596 70.2791 36.8669 69.972 36.8669 69.5931C36.8669 69.2143 36.5596 68.9071 36.1807 68.9071C35.8017 68.9071 35.4945 69.2143 35.4945 69.5931C35.4945 69.972 35.8017 70.2791 36.1807 70.2791Z" fill="#3F3D56"/>
<path d="M36.1807 69.4203C36.5596 69.4203 36.8669 69.1131 36.8669 68.7343C36.8669 68.3554 36.5596 68.0483 36.1807 68.0483C35.8017 68.0483 35.4945 68.3554 35.4945 68.7343C35.4945 69.1131 35.8017 69.4203 36.1807 69.4203Z" fill="#3F3D56"/>
<path d="M37.2102 69.7642C37.5892 69.7642 37.8964 69.4571 37.8964 69.0782C37.8964 68.6993 37.5892 68.3922 37.2102 68.3922C36.8313 68.3922 36.524 68.6993 36.524 69.0782C36.524 69.4571 36.8313 69.7642 37.2102 69.7642Z" fill="#3F3D56"/>
<path d="M37.8964 69.4203C38.2753 69.4203 38.5826 69.1131 38.5826 68.7343C38.5826 68.3554 38.2753 68.0483 37.8964 68.0483C37.5174 68.0483 37.2102 68.3554 37.2102 68.7343C37.2102 69.1131 37.5174 69.4203 37.8964 69.4203Z" fill="#3F3D56"/>
<path d="M38.5826 69.0782C38.9616 69.0782 39.2688 68.7711 39.2688 68.3922C39.2688 68.0134 38.9616 67.7062 38.5826 67.7062C38.2036 67.7062 37.8964 68.0134 37.8964 68.3922C37.8964 68.7711 38.2036 69.0782 38.5826 69.0782Z" fill="#3F3D56"/>
<path d="M36.1807 68.5633C36.5596 68.5633 36.8669 68.2561 36.8669 67.8773C36.8669 67.4984 36.5596 67.1913 36.1807 67.1913C35.8017 67.1913 35.4945 67.4984 35.4945 67.8773C35.4945 68.2561 35.8017 68.5633 36.1807 68.5633Z" fill="#3F3D56"/>
<path d="M36.1807 67.7062C36.5596 67.7062 36.8669 67.3991 36.8669 67.0202C36.8669 66.6414 36.5596 66.3342 36.1807 66.3342C35.8017 66.3342 35.4945 66.6414 35.4945 67.0202C35.4945 67.3991 35.8017 67.7062 36.1807 67.7062Z" fill="#3F3D56"/>
<path d="M36.1807 66.8492C36.5596 66.8492 36.8669 66.542 36.8669 66.1632C36.8669 65.7843 36.5596 65.4772 36.1807 65.4772C35.8017 65.4772 35.4945 65.7843 35.4945 66.1632C35.4945 66.542 35.8017 66.8492 36.1807 66.8492Z" fill="#3F3D56"/>
<path d="M36.1807 65.9921C36.5596 65.9921 36.8669 65.685 36.8669 65.3062C36.8669 64.9273 36.5596 64.6202 36.1807 64.6202C35.8017 64.6202 35.4945 64.9273 35.4945 65.3062C35.4945 65.685 35.8017 65.9921 36.1807 65.9921Z" fill="#3F3D56"/>
<path d="M39.03 63.0935C38.8587 63.1184 38.6876 63.1364 38.5167 63.1473C38.6759 63.0084 38.8237 62.8571 38.9586 62.6946C38.8635 62.4064 38.7238 62.135 38.5445 61.8901C38.3745 61.9856 38.1866 62.0449 37.9925 62.0642C37.8227 62.089 37.6516 62.1071 37.4805 62.1192C37.7118 61.9015 37.9308 61.671 38.1364 61.429C37.6415 60.9806 37.0075 60.716 36.3406 60.6793C35.6738 60.6427 35.0145 60.8362 34.4734 61.2276C33.9323 61.6189 33.5421 62.1843 33.3683 62.829C33.1944 63.4736 33.2475 64.1584 33.5185 64.7687C33.7896 65.3789 34.2621 65.8775 34.8571 66.1809C35.452 66.4843 36.1332 66.5741 36.7865 66.4352C37.4397 66.2964 38.0254 65.9373 38.4454 65.4181C38.8654 64.899 39.0942 64.2513 39.0935 63.5836C39.0935 63.4156 39.0788 63.248 39.0493 63.0826L39.03 63.0935Z" fill="#3B0E8A"/>
<path d="M41.3176 66.5017C41.1426 66.6092 40.945 66.6748 40.7403 66.6932C40.5704 66.718 40.3993 66.7374 40.2282 66.7482C40.4101 66.5851 40.5798 66.409 40.7361 66.2212C40.3224 66.1132 39.8833 66.1633 39.5046 66.3617C39.1259 66.5602 38.8349 66.8927 38.6884 67.2943C38.5419 67.6958 38.5505 68.1376 38.7125 68.5332C38.8745 68.9287 39.1782 69.2497 39.5644 69.4332C39.9505 69.6168 40.3912 69.6498 40.8004 69.5258C41.2095 69.4017 41.5577 69.1296 41.7768 68.7626C41.996 68.3955 42.0703 67.96 41.9852 67.5411C41.9002 67.1222 41.6619 66.75 41.317 66.4974L41.3176 66.5017Z" fill="#3B0E8A"/>
<path d="M35.1523 69.7642C35.5313 69.7642 35.8385 69.4571 35.8385 69.0782C35.8385 68.6993 35.5313 68.3922 35.1523 68.3922C34.7733 68.3922 34.4661 68.6993 34.4661 69.0782C34.4661 69.4571 34.7733 69.7642 35.1523 69.7642Z" fill="#3F3D56"/>
<path d="M34.4661 69.4203C34.8451 69.4203 35.1523 69.1131 35.1523 68.7343C35.1523 68.3554 34.8451 68.0483 34.4661 68.0483C34.0872 68.0483 33.78 68.3554 33.78 68.7343C33.78 69.1131 34.0872 69.4203 34.4661 69.4203Z" fill="#3F3D56"/>
<path d="M33.7799 69.0782C34.1589 69.0782 34.4661 68.7711 34.4661 68.3922C34.4661 68.0134 34.1589 67.7062 33.7799 67.7062C33.401 67.7062 33.0938 68.0134 33.0938 68.3922C33.0938 68.7711 33.401 69.0782 33.7799 69.0782Z" fill="#3F3D56"/>
<path d="M31.0449 66.5017C31.22 66.6092 31.4176 66.6748 31.6223 66.6932C31.7922 66.718 31.9632 66.7374 32.1343 66.7482C31.9521 66.5855 31.7824 66.4093 31.6265 66.2212C32.0402 66.1132 32.4793 66.1633 32.858 66.3617C33.2367 66.5602 33.5277 66.8927 33.6742 67.2943C33.8207 67.6958 33.8121 68.1376 33.6501 68.5332C33.4881 68.9287 33.1843 69.2497 32.7982 69.4332C32.4121 69.6168 31.9714 69.6498 31.5622 69.5258C31.153 69.4017 30.8049 69.1296 30.5857 68.7626C30.3666 68.3955 30.2923 67.96 30.3773 67.5411C30.4624 67.1222 30.7006 66.75 31.0455 66.4974L31.0449 66.5017Z" fill="#3B0E8A"/>
<path d="M35.6873 73.1869H37.3589C37.8122 73.1869 38.261 73.2761 38.6797 73.4495C39.0985 73.6229 39.479 73.8771 39.7995 74.1975C40.12 74.5179 40.3742 74.8983 40.5477 75.3169C40.7211 75.7355 40.8104 76.1842 40.8104 76.6374V81.174C40.8104 81.3291 40.7487 81.4779 40.639 81.5877C40.5292 81.6974 40.3804 81.759 40.2252 81.759H32.8175C32.6622 81.759 32.5134 81.6974 32.4036 81.5877C32.2939 81.4779 32.2322 81.3291 32.2322 81.174V76.6374C32.2322 76.1839 32.3217 75.7348 32.4954 75.3159C32.6691 74.897 32.9237 74.5165 33.2446 74.196C33.5656 73.8755 33.9466 73.6215 34.3658 73.4483C34.785 73.2751 35.2343 73.1863 35.6879 73.1869H35.6873Z" fill="#3F3D56"/>
<g opacity="0.1">
<path opacity="0.1" d="M39.0766 63.2808C39.0072 63.355 38.9335 63.425 38.8559 63.4905C38.9344 63.4878 39.0127 63.4809 39.0905 63.47C39.088 63.4084 39.0838 63.3431 39.0766 63.2808Z" fill="black"/>
<path opacity="0.1" d="M37.8257 62.4613C37.998 62.4504 38.1679 62.4322 38.339 62.4075C38.4926 62.3882 38.6428 62.3475 38.7852 62.2866C38.7148 62.1486 38.634 62.0163 38.5433 61.8907C38.4574 61.943 38.3643 61.9825 38.2671 62.008C38.1317 62.1708 37.9835 62.3226 37.8239 62.4619L37.8257 62.4613Z" fill="black"/>
<path opacity="0.1" d="M33.6083 63.9366C33.6072 63.4133 33.7474 62.8994 34.0139 62.449C34.2805 61.9987 34.6636 61.6285 35.123 61.3776C35.5823 61.1266 36.1008 61.0042 36.6239 61.0231C37.1471 61.0421 37.6554 61.2017 38.0953 61.4852L38.1395 61.438C37.5586 60.9289 36.7991 60.6712 36.0282 60.7218C35.2573 60.7724 34.5381 61.1271 34.0287 61.7079C33.5194 62.2886 33.2617 63.0479 33.3124 63.8186C33.363 64.5893 33.7178 65.3083 34.2987 65.8175C33.8523 65.2922 33.6075 64.6252 33.6083 63.936V63.9366Z" fill="black"/>
</g>
<g opacity="0.1">
<path opacity="0.1" d="M40.2282 67.0904C40.3993 67.0795 40.5704 67.0614 40.7403 67.0366C40.9451 67.0176 41.1427 66.9514 41.3176 66.8432C41.5115 66.9859 41.6732 67.1678 41.7921 67.3771C41.9111 67.5864 41.9846 67.8184 42.008 68.058C42.0148 67.9978 42.018 67.9373 42.0177 67.8767C42.019 67.6086 41.9572 67.3439 41.8373 67.1041C41.7174 66.8643 41.5427 66.6561 41.3273 66.4962C41.1522 66.6038 40.9546 66.6694 40.7499 66.6878L40.6121 66.706C40.4943 66.8438 40.3659 66.9724 40.2282 67.0904Z" fill="black"/>
<path opacity="0.1" d="M40.2971 66.5053C40.3544 66.5061 40.4115 66.5103 40.4682 66.518C40.5577 66.4225 40.6466 66.3204 40.7361 66.2212C40.4823 66.1535 40.2163 66.1451 39.9588 66.1967C39.7012 66.2482 39.459 66.3583 39.2508 66.5183C39.0426 66.6784 38.8741 66.8843 38.7582 67.1199C38.6423 67.3556 38.5823 67.6147 38.5826 67.8773C38.5813 67.9344 38.5841 67.9916 38.5911 68.0483C38.6335 67.6254 38.8315 67.2334 39.1468 66.9483C39.4621 66.6632 39.872 66.5053 40.2971 66.5053Z" fill="black"/>
</g>
<g opacity="0.1">
<path opacity="0.1" d="M32.1343 67.0904C31.9632 67.0795 31.7921 67.0614 31.6223 67.0366C31.4174 67.0176 31.2198 66.9514 31.0449 66.8432C30.851 66.9859 30.6893 67.1678 30.5704 67.3771C30.4515 67.5864 30.3779 67.8184 30.3545 68.058C30.3478 67.9978 30.3445 67.9373 30.3448 67.8767C30.3435 67.6086 30.4053 67.3439 30.5252 67.1041C30.6452 66.8643 30.8199 66.6561 31.0352 66.4962C31.2103 66.6038 31.4079 66.6694 31.6126 66.6878L31.7504 66.706C31.8675 66.8445 31.9959 66.9731 32.1343 67.0904Z" fill="black"/>
<path opacity="0.1" d="M32.063 66.5053C32.0054 66.5061 31.9478 66.5103 31.8907 66.518C31.8024 66.4225 31.7142 66.3204 31.6241 66.2212C31.8779 66.1535 32.1438 66.1451 32.4014 66.1967C32.6589 66.2482 32.9011 66.3583 33.1093 66.5183C33.3175 66.6784 33.486 66.8843 33.6019 67.1199C33.7178 67.3556 33.7779 67.6147 33.7775 67.8773C33.7789 67.9344 33.776 67.9916 33.7691 68.0483C33.7266 67.6254 33.5286 67.2334 33.2133 66.9483C32.8981 66.6632 32.4881 66.5053 32.063 66.5053Z" fill="black"/>
</g>
<path d="M27.4127 83.4181H13.9249C13.7729 83.4181 13.6272 83.3577 13.5197 83.2503C13.4122 83.1428 13.3518 82.9971 13.3518 82.8451V76.4633C13.3519 76.3667 13.3764 76.2717 13.423 76.1871C13.4697 76.1025 13.537 76.031 13.6187 75.9794C13.7004 75.9278 13.7938 75.8976 13.8902 75.8918C13.9867 75.8859 14.0831 75.9046 14.1704 75.946C18.0456 77.7845 22.2201 78.4149 27.1479 75.975C27.2353 75.9319 27.3321 75.9118 27.4293 75.9165C27.5266 75.9211 27.6211 75.9504 27.7039 76.0016C27.7867 76.0528 27.8551 76.1242 27.9028 76.2091C27.9504 76.294 27.9757 76.3896 27.9762 76.4869V82.833C27.9778 82.9085 27.9645 82.9835 27.937 83.0538C27.9095 83.1241 27.8684 83.1883 27.816 83.2426C27.7637 83.297 27.7011 83.3405 27.6319 83.3706C27.5627 83.4007 27.4882 83.4168 27.4127 83.4181Z" fill="#3B0E8A"/>
<path opacity="0.1" d="M27.4127 83.4181H13.9249C13.7729 83.4181 13.6272 83.3577 13.5197 83.2503C13.4122 83.1428 13.3518 82.9971 13.3518 82.8451V76.4633C13.3519 76.3667 13.3764 76.2717 13.423 76.1871C13.4697 76.1025 13.537 76.031 13.6187 75.9794C13.7004 75.9278 13.7938 75.8976 13.8902 75.8918C13.9867 75.8859 14.0831 75.9046 14.1704 75.946C18.0456 77.7845 22.2201 78.4149 27.1479 75.975C27.2353 75.9319 27.3321 75.9118 27.4293 75.9165C27.5266 75.9211 27.6211 75.9504 27.7039 76.0016C27.7867 76.0528 27.8551 76.1242 27.9028 76.2091C27.9504 76.294 27.9757 76.3896 27.9762 76.4869V82.833C27.9778 82.9085 27.9645 82.9835 27.937 83.0538C27.9095 83.1241 27.8684 83.1883 27.816 83.2426C27.7637 83.297 27.7011 83.3405 27.6319 83.3706C27.5627 83.4007 27.4882 83.4168 27.4127 83.4181Z" fill="black"/>
<path d="M20.5751 78.5672C21.0158 78.5672 21.3731 78.0993 21.3731 77.5222C21.3731 76.9451 21.0158 76.4772 20.5751 76.4772C20.1343 76.4772 19.777 76.9451 19.777 77.5222C19.777 78.0993 20.1343 78.5672 20.5751 78.5672Z" fill="#3F3D56"/>
<path d="M20.5751 77.2907C21.0158 77.2907 21.3731 76.8228 21.3731 76.2457C21.3731 75.6686 21.0158 75.2007 20.5751 75.2007C20.1343 75.2007 19.777 75.6686 19.777 76.2457C19.777 76.8228 20.1343 77.2907 20.5751 77.2907Z" fill="#3F3D56"/>
<path d="M20.5751 76.0124C21.0158 76.0124 21.3731 75.5446 21.3731 74.9674C21.3731 74.3903 21.0158 73.9224 20.5751 73.9224C20.1343 73.9224 19.777 74.3903 19.777 74.9674C19.777 75.5446 20.1343 76.0124 20.5751 76.0124Z" fill="#3F3D56"/>
<path d="M20.5751 74.7359C21.0158 74.7359 21.3731 74.2681 21.3731 73.6909C21.3731 73.1138 21.0158 72.6459 20.5751 72.6459C20.1343 72.6459 19.777 73.1138 19.777 73.6909C19.777 74.2681 20.1343 74.7359 20.5751 74.7359Z" fill="#3F3D56"/>
<path d="M20.5751 73.4576C21.0158 73.4576 21.3731 72.9898 21.3731 72.4126C21.3731 71.8355 21.0158 71.3676 20.5751 71.3676C20.1343 71.3676 19.777 71.8355 19.777 72.4126C19.777 72.9898 20.1343 73.4576 20.5751 73.4576Z" fill="#3F3D56"/>
<path d="M20.5751 72.1799C21.0158 72.1799 21.3731 71.7121 21.3731 71.135C21.3731 70.5578 21.0158 70.09 20.5751 70.09C20.1343 70.09 19.777 70.5578 19.777 71.135C19.777 71.7121 20.1343 72.1799 20.5751 72.1799Z" fill="#3F3D56"/>
<path d="M20.5751 70.9029C21.0158 70.9029 21.3731 70.435 21.3731 69.8579C21.3731 69.2807 21.0158 68.8129 20.5751 68.8129C20.1343 68.8129 19.777 69.2807 19.777 69.8579C19.777 70.435 20.1343 70.9029 20.5751 70.9029Z" fill="#3F3D56"/>
<path d="M23.5683 61.1159C23.6766 60.9766 23.7758 60.8304 23.8651 60.6783L21.7661 60.3356L24.0356 60.3519C24.2548 59.8774 24.3744 59.3629 24.387 58.8403C24.3996 58.3178 24.3049 57.7982 24.1087 57.3136L21.0648 58.8923L23.873 56.8222C23.6102 56.3674 23.2565 55.9715 22.8339 55.6594C22.4113 55.3472 21.929 55.1254 21.4169 55.0077C20.9048 54.8901 20.374 54.8792 19.8575 54.9757C19.341 55.0722 18.8499 55.274 18.4149 55.5686C17.9799 55.8631 17.6102 56.2441 17.3289 56.6878C17.0476 57.1315 16.8608 57.6283 16.78 58.1473C16.6993 58.6664 16.7263 59.1965 16.8595 59.7046C16.9927 60.2127 17.2291 60.688 17.5541 61.1008C17.3834 61.3163 17.237 61.55 17.1176 61.7976L19.8381 63.2276L16.9362 62.2479C16.7331 62.8502 16.6831 63.4936 16.7909 64.1201C16.8987 64.7465 17.1607 65.3363 17.5535 65.8362C17.1096 66.4003 16.8334 67.078 16.7566 67.7916C16.6797 68.5053 16.8053 69.2261 17.119 69.8718C17.4326 70.5174 17.9217 71.0618 18.5303 71.4427C19.1388 71.8236 19.8423 72.0255 20.5603 72.0255C21.2782 72.0255 21.9817 71.8236 22.5903 71.4427C23.1988 71.0618 23.6879 70.5174 24.0016 69.8718C24.3152 69.2261 24.4408 68.5053 24.364 67.7916C24.2871 67.078 24.011 66.4003 23.5671 65.8362C24.0972 65.1622 24.3855 64.3296 24.3855 63.4721C24.3855 62.6146 24.0972 61.7821 23.5671 61.108L23.5683 61.1159Z" fill="#3B0E8A"/>
<path opacity="0.1" d="M16.7325 63.4803C16.7311 64.3381 17.0196 65.1712 17.5511 65.8447C17.1071 66.4088 16.831 67.0864 16.7542 67.8001C16.6773 68.5137 16.8029 69.2346 17.1166 69.8803C17.4302 70.5259 17.9193 71.0703 18.5278 71.4512C19.1364 71.832 19.8399 72.034 20.5579 72.034C21.2758 72.034 21.9793 71.832 22.5879 71.4512C23.1964 71.0703 23.6855 70.5259 23.9991 69.8803C24.3128 69.2346 24.4384 68.5137 24.3616 67.8001C24.2847 67.0864 24.0086 66.4088 23.5646 65.8447C24.0773 65.1944 16.7325 63.0506 16.7325 63.4803Z" fill="black"/>
<path d="M27.4127 83.756H13.9249C13.7729 83.756 13.6272 83.6956 13.5197 83.5881C13.4122 83.4807 13.3518 83.335 13.3518 83.183V76.4633C13.3519 76.3667 13.3764 76.2717 13.423 76.1871C13.4697 76.1025 13.537 76.031 13.6187 75.9794C13.7004 75.9278 13.7938 75.8976 13.8902 75.8918C13.9867 75.8859 14.0831 75.9046 14.1704 75.946C18.0456 77.7845 21.1186 79.9277 27.1479 75.975C27.2348 75.928 27.3325 75.9049 27.4313 75.9078C27.53 75.9106 27.6262 75.9395 27.7102 75.9914C27.7942 76.0433 27.863 76.1165 27.9097 76.2035C27.9564 76.2904 27.9793 76.3882 27.9762 76.4869V83.1806C27.9768 83.3313 27.9181 83.4762 27.8126 83.5839C27.7071 83.6916 27.5635 83.7534 27.4127 83.756Z" fill="#3B0E8A"/>
<path d="M127.5 81.8564L107.601 84.4885L106.606 84.6196L96.8776 79.4218V78.2058L127.28 74.8907L127.5 81.8564Z" fill="#9C9CA1"/>
<path d="M102.515 79.9761L124.073 77.4376L123.852 81.4169L107.06 82.6481L102.515 79.9761Z" fill="#939498"/>
<path opacity="0.4" d="M107.601 83.1806V84.4861L106.606 84.6239L96.8751 79.4261V78.21L106.162 83.1788C106.64 83.2356 107.123 83.2362 107.601 83.1806Z" fill="black"/>
<path d="M111.42 62.457L106.952 83.1667C106.907 83.374 106.913 83.5891 106.968 83.7938C107.024 83.9985 107.128 84.1869 107.272 84.3429C107.415 84.499 107.595 84.6181 107.794 84.6904C107.994 84.7626 108.208 84.7858 108.418 84.758L136.682 81.018C136.928 80.9855 137.16 80.8844 137.352 80.7262C137.543 80.568 137.686 80.3591 137.764 80.1235L143.862 61.7396C143.93 61.5357 143.946 61.3184 143.911 61.1065C143.876 60.8946 143.79 60.6945 143.66 60.5234C143.53 60.3523 143.36 60.2153 143.166 60.1242C142.971 60.0332 142.757 59.9908 142.543 60.0008L112.651 61.4199C112.36 61.4337 112.082 61.5428 111.86 61.7302C111.637 61.9177 111.483 62.1731 111.42 62.457Z" fill="#3F3D56"/>
<path d="M126.894 70.0597C126.964 69.4001 126.676 68.8291 126.252 68.7844C125.828 68.7397 125.428 69.2382 125.359 69.8978C125.289 70.5574 125.576 71.1283 126 71.173C126.424 71.2178 126.825 70.7193 126.894 70.0597Z" fill="white"/>
</g>
<defs>
<filter id="filter0_d" x="-3.76361" y="0.732635" width="166.763" height="94.6056" filterUnits="userSpaceOnUse" color-interpolation-filters="sRGB">
<feFlood flood-opacity="0" result="BackgroundImageFix"/>
<feColorMatrix in="SourceAlpha" type="matrix" values="0 0 0 0 0 0 0 0 0 0 0 0 0 0 0 0 0 0 127 0" result="hardAlpha"/>
<feOffset dy="4"/>
<feGaussianBlur stdDeviation="2"/>
<feComposite in2="hardAlpha" operator="out"/>
<feColorMatrix type="matrix" values="0 0 0 0 0 0 0 0 0 0 0 0 0 0 0 0 0 0 0.25 0"/>
<feBlend mode="normal" in2="BackgroundImageFix" result="effect1_dropShadow"/>
<feBlend mode="normal" in="SourceGraphic" in2="effect1_dropShadow" result="shape"/>
</filter>
</defs>
</svg>
