<svg width="18" height="18" viewBox="0 0 18 18" fill="none" xmlns="http://www.w3.org/2000/svg">
<path d="M8.625 2.125C9.18126 2.125 9.72503 2.28995 10.1875 2.59899C10.6501 2.90803 11.0105 3.34729 11.2234 3.8612C11.4363 4.37512 11.492 4.94062 11.3835 5.48619C11.2749 6.03176 11.0071 6.5329 10.6137 6.92624C10.2204 7.31957 9.71926 7.58744 9.17369 7.69596C8.62812 7.80448 8.06262 7.74878 7.5487 7.53591C7.03479 7.32304 6.59554 6.96255 6.28649 6.50004C5.97745 6.03753 5.8125 5.49376 5.8125 4.9375C5.8125 4.19158 6.10882 3.47621 6.63626 2.94876C7.16371 2.42132 7.87908 2.125 8.625 2.125ZM8.625 1C7.84624 1 7.08496 1.23093 6.43744 1.66359C5.78993 2.09625 5.28525 2.7112 4.98723 3.43068C4.68921 4.15017 4.61123 4.94187 4.76316 5.70567C4.91509 6.46947 5.2901 7.17106 5.84077 7.72173C6.39144 8.2724 7.09303 8.64741 7.85683 8.79934C8.62063 8.95127 9.41233 8.8733 10.1318 8.57528C10.8513 8.27726 11.4663 7.77258 11.8989 7.12506C12.3316 6.47754 12.5625 5.71626 12.5625 4.9375C12.5625 3.89321 12.1477 2.89169 11.4092 2.15327C10.6708 1.41484 9.66929 1 8.625 1Z" fill="white"/>
<path d="M14.25 16.75H13.125V13.9375C13.125 13.1916 12.8287 12.4762 12.3012 11.9488C11.7738 11.4213 11.0584 11.125 10.3125 11.125H6.9375C6.19158 11.125 5.47621 11.4213 4.94876 11.9488C4.42132 12.4762 4.125 13.1916 4.125 13.9375V16.75H3V13.9375C3 12.8932 3.41484 11.8917 4.15327 11.1533C4.89169 10.4148 5.89321 10 6.9375 10H10.3125C11.3568 10 12.3583 10.4148 13.0967 11.1533C13.8352 11.8917 14.25 12.8932 14.25 13.9375V16.75Z" fill="white"/>
</svg>
